<svg xmlns="http://www.w3.org/2000/svg" xmlns:xlink="http://www.w3.org/1999/xlink" width="500" zoomAndPan="magnify" viewBox="0 0 375 374.999991" height="500" preserveAspectRatio="xMidYMid meet" version="1.0"><defs><clipPath id="8506a2792f"><path d="M 28 286 L 347 286 L 347 297 L 28 297 Z M 28 286 " clip-rule="nonzero"/></clipPath><clipPath id="8f281fd1d1"><path d="M 35.242188 296.941406 L 339.746094 296.941406 C 342.109375 293.65625 344.371094 290.292969 346.523438 286.855469 L 28.464844 286.855469 C 30.617188 290.292969 32.878906 293.65625 35.242188 296.941406 Z M 35.242188 296.941406 " clip-rule="nonzero"/></clipPath><linearGradient x1="424.83701" gradientTransform="matrix(0.441332, 0, 0, 0.441332, 0.0000045, 0)" y1="649.976226" x2="424.83701" gradientUnits="userSpaceOnUse" y2="672.830407" id="0c67c9cb45"><stop stop-opacity="1" stop-color="rgb(91.566467%, 0%, 57.406616%)" offset="0"/><stop stop-opacity="1" stop-color="rgb(91.497803%, 0%, 57.579041%)" offset="0.125"/><stop stop-opacity="1" stop-color="rgb(91.360474%, 0%, 57.922363%)" offset="0.25"/><stop stop-opacity="1" stop-color="rgb(91.22467%, 0%, 58.267212%)" offset="0.375"/><stop stop-opacity="1" stop-color="rgb(91.088867%, 0%, 58.610535%)" offset="0.5"/><stop stop-opacity="1" stop-color="rgb(90.953064%, 0%, 58.955383%)" offset="0.625"/><stop stop-opacity="1" stop-color="rgb(90.815735%, 0%, 59.298706%)" offset="0.75"/><stop stop-opacity="1" stop-color="rgb(90.679932%, 0%, 59.643555%)" offset="0.875"/><stop stop-opacity="1" stop-color="rgb(90.544128%, 0%, 59.986877%)" offset="1"/></linearGradient><clipPath id="15b0d07951"><path d="M 17 265 L 358 265 L 358 278 L 17 278 Z M 17 265 " clip-rule="nonzero"/></clipPath><clipPath id="4d68223f00"><path d="M 23.039062 277.613281 L 351.949219 277.613281 C 354.035156 273.816406 355.992188 269.9375 357.8125 265.988281 L 17.175781 265.988281 C 18.996094 269.9375 20.957031 273.816406 23.039062 277.613281 Z M 23.039062 277.613281 " clip-rule="nonzero"/></clipPath><linearGradient x1="424.83701" gradientTransform="matrix(0.441332, 0, 0, 0.441332, 0.0000045, 0)" y1="602.690274" x2="424.83701" gradientUnits="userSpaceOnUse" y2="629.034695" id="95627dd0bf"><stop stop-opacity="1" stop-color="rgb(93.82019%, 0%, 51.712036%)" offset="0"/><stop stop-opacity="1" stop-color="rgb(93.780518%, 0%, 51.811218%)" offset="0.0625"/><stop stop-opacity="1" stop-color="rgb(93.701172%, 0%, 52.009583%)" offset="0.125"/><stop stop-opacity="1" stop-color="rgb(93.623352%, 0%, 52.207947%)" offset="0.1875"/><stop stop-opacity="1" stop-color="rgb(93.545532%, 0%, 52.406311%)" offset="0.25"/><stop stop-opacity="1" stop-color="rgb(93.466187%, 0%, 52.604675%)" offset="0.3125"/><stop stop-opacity="1" stop-color="rgb(93.388367%, 0%, 52.80304%)" offset="0.375"/><stop stop-opacity="1" stop-color="rgb(93.309021%, 0%, 52.999878%)" offset="0.4375"/><stop stop-opacity="1" stop-color="rgb(93.231201%, 0%, 53.198242%)" offset="0.5"/><stop stop-opacity="1" stop-color="rgb(93.151855%, 0%, 53.396606%)" offset="0.5625"/><stop stop-opacity="1" stop-color="rgb(93.074036%, 0%, 53.594971%)" offset="0.625"/><stop stop-opacity="1" stop-color="rgb(92.996216%, 0%, 53.793335%)" offset="0.6875"/><stop stop-opacity="1" stop-color="rgb(92.91687%, 0%, 53.991699%)" offset="0.75"/><stop stop-opacity="1" stop-color="rgb(92.83905%, 0%, 54.190063%)" offset="0.8125"/><stop stop-opacity="1" stop-color="rgb(92.759705%, 0%, 54.388428%)" offset="0.875"/><stop stop-opacity="1" stop-color="rgb(92.681885%, 0%, 54.586792%)" offset="0.9375"/><stop stop-opacity="1" stop-color="rgb(92.602539%, 0%, 54.785156%)" offset="1"/></linearGradient><clipPath id="4c095e64dd"><path d="M 9 245 L 366 245 L 366 259 L 9 259 Z M 9 245 " clip-rule="nonzero"/></clipPath><clipPath id="90df0e420d"><path d="M 13.828125 258.285156 L 361.164062 258.285156 C 362.921875 253.976562 364.523438 249.585938 365.964844 245.121094 L 9.023438 245.121094 C 10.464844 249.585938 12.066406 253.976562 13.828125 258.285156 Z M 13.828125 258.285156 " clip-rule="nonzero"/></clipPath><linearGradient x1="424.83701" gradientTransform="matrix(0.441332, 0, 0, 0.441332, 0.0000045, 0)" y1="555.411342" x2="424.83701" gradientUnits="userSpaceOnUse" y2="585.238973" id="012eeac878"><stop stop-opacity="1" stop-color="rgb(96.073914%, 0%, 46.017456%)" offset="0"/><stop stop-opacity="1" stop-color="rgb(96.029663%, 0%, 46.128845%)" offset="0.0625"/><stop stop-opacity="1" stop-color="rgb(95.939636%, 0%, 46.353149%)" offset="0.125"/><stop stop-opacity="1" stop-color="rgb(95.851135%, 0%, 46.577454%)" offset="0.1875"/><stop stop-opacity="1" stop-color="rgb(95.762634%, 0%, 46.803284%)" offset="0.25"/><stop stop-opacity="1" stop-color="rgb(95.674133%, 0%, 47.027588%)" offset="0.3125"/><stop stop-opacity="1" stop-color="rgb(95.584106%, 0%, 47.251892%)" offset="0.375"/><stop stop-opacity="1" stop-color="rgb(95.495605%, 0%, 47.476196%)" offset="0.4375"/><stop stop-opacity="1" stop-color="rgb(95.407104%, 0%, 47.7005%)" offset="0.5"/><stop stop-opacity="1" stop-color="rgb(95.318604%, 0%, 47.924805%)" offset="0.5625"/><stop stop-opacity="1" stop-color="rgb(95.230103%, 0%, 48.149109%)" offset="0.625"/><stop stop-opacity="1" stop-color="rgb(95.140076%, 0%, 48.374939%)" offset="0.6875"/><stop stop-opacity="1" stop-color="rgb(95.051575%, 0%, 48.599243%)" offset="0.75"/><stop stop-opacity="1" stop-color="rgb(94.963074%, 0%, 48.823547%)" offset="0.8125"/><stop stop-opacity="1" stop-color="rgb(94.874573%, 0%, 49.047852%)" offset="0.875"/><stop stop-opacity="1" stop-color="rgb(94.784546%, 0%, 49.272156%)" offset="0.9375"/><stop stop-opacity="1" stop-color="rgb(94.696045%, 0%, 49.49646%)" offset="1"/></linearGradient><clipPath id="b9f5a0b600"><path d="M 43 307 L 332 307 L 332 317 L 43 317 Z M 43 307 " clip-rule="nonzero"/></clipPath><clipPath id="efa07de44d"><path d="M 51.222656 316.265625 L 323.765625 316.265625 C 326.386719 313.496094 328.921875 310.648438 331.367188 307.722656 L 43.621094 307.722656 C 46.066406 310.648438 48.601562 313.496094 51.222656 316.265625 Z M 51.222656 316.265625 " clip-rule="nonzero"/></clipPath><linearGradient x1="424.83701" gradientTransform="matrix(0.441332, 0, 0, 0.441332, 0.0000045, 0)" y1="697.262238" x2="424.83701" gradientUnits="userSpaceOnUse" y2="716.619169" id="04f7979877"><stop stop-opacity="1" stop-color="rgb(89.311218%, 0%, 63.102722%)" offset="0"/><stop stop-opacity="1" stop-color="rgb(89.253235%, 0%, 63.247681%)" offset="0.125"/><stop stop-opacity="1" stop-color="rgb(89.138794%, 0%, 63.539124%)" offset="0.25"/><stop stop-opacity="1" stop-color="rgb(89.022827%, 0%, 63.830566%)" offset="0.375"/><stop stop-opacity="1" stop-color="rgb(88.908386%, 0%, 64.122009%)" offset="0.5"/><stop stop-opacity="1" stop-color="rgb(88.792419%, 0%, 64.411926%)" offset="0.625"/><stop stop-opacity="1" stop-color="rgb(88.677979%, 0%, 64.703369%)" offset="0.75"/><stop stop-opacity="1" stop-color="rgb(88.562012%, 0%, 64.994812%)" offset="0.875"/><stop stop-opacity="1" stop-color="rgb(88.446045%, 0%, 65.286255%)" offset="1"/></linearGradient><clipPath id="b62ae65210"><path d="M 145 370 L 230 370 L 230 375 L 145 375 Z M 145 370 " clip-rule="nonzero"/></clipPath><clipPath id="1539c47f52"><path d="M 187.492188 374.984375 C 201.835938 374.984375 215.800781 373.375 229.222656 370.324219 L 145.769531 370.324219 C 159.183594 373.375 173.152344 374.984375 187.492188 374.984375 Z M 187.492188 374.984375 " clip-rule="nonzero"/></clipPath><clipPath id="d399a43cba"><path d="M 64 328 L 311 328 L 311 336 L 64 336 Z M 64 328 " clip-rule="nonzero"/></clipPath><clipPath id="e15675a422"><path d="M 72.507812 335.59375 L 302.480469 335.59375 C 305.378906 333.34375 308.210938 331.003906 310.96875 328.589844 L 64.019531 328.589844 C 66.777344 331.007812 69.609375 333.34375 72.507812 335.59375 Z M 72.507812 335.59375 " clip-rule="nonzero"/></clipPath><linearGradient x1="424.83701" gradientTransform="matrix(0.441332, 0, 0, 0.441332, 0.0000045, 0)" y1="744.54123" x2="424.83701" gradientUnits="userSpaceOnUse" y2="760.41489" id="266deb536a"><stop stop-opacity="1" stop-color="rgb(87.057495%, 0%, 68.797302%)" offset="0"/><stop stop-opacity="1" stop-color="rgb(87.010193%, 0%, 68.916321%)" offset="0.125"/><stop stop-opacity="1" stop-color="rgb(86.915588%, 0%, 69.154358%)" offset="0.25"/><stop stop-opacity="1" stop-color="rgb(86.820984%, 0%, 69.393921%)" offset="0.375"/><stop stop-opacity="1" stop-color="rgb(86.726379%, 0%, 69.631958%)" offset="0.5"/><stop stop-opacity="1" stop-color="rgb(86.631775%, 0%, 69.871521%)" offset="0.625"/><stop stop-opacity="1" stop-color="rgb(86.53717%, 0%, 70.111084%)" offset="0.75"/><stop stop-opacity="1" stop-color="rgb(86.442566%, 0%, 70.349121%)" offset="0.875"/><stop stop-opacity="1" stop-color="rgb(86.349487%, 0%, 70.588684%)" offset="1"/></linearGradient><clipPath id="5c8bce58b1"><path d="M 92 349 L 283 349 L 283 355 L 92 355 Z M 92 349 " clip-rule="nonzero"/></clipPath><clipPath id="db43ba54fa"><path d="M 103.015625 354.921875 L 271.972656 354.921875 C 275.375 353.199219 278.722656 351.378906 282.003906 349.457031 L 92.980469 349.457031 C 96.265625 351.378906 99.613281 353.199219 103.015625 354.921875 Z M 103.015625 354.921875 " clip-rule="nonzero"/></clipPath><linearGradient x1="424.83401" gradientTransform="matrix(0.441332, 0, 0, 0.441332, 0.0000045, 0)" y1="791.827182" x2="424.83401" gradientUnits="userSpaceOnUse" y2="804.203642" id="e18aa6d7f7"><stop stop-opacity="1" stop-color="rgb(84.803772%, 0%, 74.491882%)" offset="0"/><stop stop-opacity="1" stop-color="rgb(84.73053%, 0%, 74.67804%)" offset="0.25"/><stop stop-opacity="1" stop-color="rgb(84.58252%, 0%, 75.050354%)" offset="0.5"/><stop stop-opacity="1" stop-color="rgb(84.434509%, 0%, 75.422668%)" offset="0.75"/><stop stop-opacity="1" stop-color="rgb(84.288025%, 0%, 75.796509%)" offset="1"/></linearGradient><clipPath id="b27bcd89ea"><path d="M 3 224 L 372 224 L 372 239 L 3 239 Z M 3 224 " clip-rule="nonzero"/></clipPath><clipPath id="3419618105"><path d="M 7.152344 238.960938 L 367.835938 238.960938 C 369.210938 234.136719 370.398438 229.230469 371.382812 224.253906 L 3.605469 224.253906 C 4.589844 229.230469 5.777344 234.136719 7.152344 238.960938 Z M 7.152344 238.960938 " clip-rule="nonzero"/></clipPath><linearGradient x1="424.83701" gradientTransform="matrix(0.441332, 0, 0, 0.441332, 0.0000045, 0)" y1="508.12539" x2="424.83701" gradientUnits="userSpaceOnUse" y2="541.450342" id="044a6cfbdb"><stop stop-opacity="1" stop-color="rgb(98.327637%, 0%, 40.322876%)" offset="0"/><stop stop-opacity="1" stop-color="rgb(98.277283%, 0%, 40.447998%)" offset="0.0625"/><stop stop-opacity="1" stop-color="rgb(98.178101%, 0%, 40.698242%)" offset="0.125"/><stop stop-opacity="1" stop-color="rgb(98.078918%, 0%, 40.948486%)" offset="0.1875"/><stop stop-opacity="1" stop-color="rgb(97.979736%, 0%, 41.200256%)" offset="0.25"/><stop stop-opacity="1" stop-color="rgb(97.880554%, 0%, 41.4505%)" offset="0.3125"/><stop stop-opacity="1" stop-color="rgb(97.781372%, 0%, 41.702271%)" offset="0.375"/><stop stop-opacity="1" stop-color="rgb(97.68219%, 0%, 41.952515%)" offset="0.4375"/><stop stop-opacity="1" stop-color="rgb(97.583008%, 0%, 42.202759%)" offset="0.5"/><stop stop-opacity="1" stop-color="rgb(97.483826%, 0%, 42.454529%)" offset="0.5625"/><stop stop-opacity="1" stop-color="rgb(97.384644%, 0%, 42.704773%)" offset="0.625"/><stop stop-opacity="1" stop-color="rgb(97.283936%, 0%, 42.956543%)" offset="0.6875"/><stop stop-opacity="1" stop-color="rgb(97.184753%, 0%, 43.206787%)" offset="0.75"/><stop stop-opacity="1" stop-color="rgb(97.085571%, 0%, 43.457031%)" offset="0.8125"/><stop stop-opacity="1" stop-color="rgb(96.986389%, 0%, 43.708801%)" offset="0.875"/><stop stop-opacity="1" stop-color="rgb(96.887207%, 0%, 43.959045%)" offset="0.9375"/><stop stop-opacity="1" stop-color="rgb(96.788025%, 0%, 44.210815%)" offset="1"/></linearGradient><clipPath id="bb86b1713e"><path d="M 0 0 L 375 0 L 375 181 L 0 181 Z M 0 0 " clip-rule="nonzero"/></clipPath><clipPath id="a6a260db0f"><path d="M 187.492188 0 C 86.125 0 3.542969 80.445312 0.109375 180.976562 L 374.878906 180.976562 C 371.445312 80.445312 288.863281 0 187.492188 0 Z M 187.492188 0 " clip-rule="nonzero"/></clipPath><linearGradient x1="424.83701" gradientTransform="matrix(0.441332, 0, 0, 0.441332, 0.0000045, 0)" y1="0" x2="424.83701" gradientUnits="userSpaceOnUse" y2="410.070056" id="53c76d6264"><stop stop-opacity="1" stop-color="rgb(100%, 78.399658%, 0%)" offset="0"/><stop stop-opacity="1" stop-color="rgb(100%, 78.399658%, 0%)" offset="0.03125"/><stop stop-opacity="1" stop-color="rgb(100%, 78.308105%, 0.0411987%)" offset="0.046875"/><stop stop-opacity="1" stop-color="rgb(100%, 77.940369%, 0.210571%)" offset="0.0507813"/><stop stop-opacity="1" stop-color="rgb(100%, 77.664185%, 0.337219%)" offset="0.0546875"/><stop stop-opacity="1" stop-color="rgb(100%, 77.388%, 0.463867%)" offset="0.0585938"/><stop stop-opacity="1" stop-color="rgb(100%, 77.113342%, 0.592041%)" offset="0.0625"/><stop stop-opacity="1" stop-color="rgb(100%, 76.837158%, 0.718689%)" offset="0.0664062"/><stop stop-opacity="1" stop-color="rgb(100%, 76.560974%, 0.845337%)" offset="0.0703125"/><stop stop-opacity="1" stop-color="rgb(100%, 76.28479%, 0.971985%)" offset="0.0742188"/><stop stop-opacity="1" stop-color="rgb(100%, 76.008606%, 1.100159%)" offset="0.078125"/><stop stop-opacity="1" stop-color="rgb(100%, 75.732422%, 1.226807%)" offset="0.0820313"/><stop stop-opacity="1" stop-color="rgb(100%, 75.456238%, 1.35498%)" offset="0.0859375"/><stop stop-opacity="1" stop-color="rgb(100%, 75.180054%, 1.481628%)" offset="0.0898438"/><stop stop-opacity="1" stop-color="rgb(100%, 74.90387%, 1.608276%)" offset="0.09375"/><stop stop-opacity="1" stop-color="rgb(100%, 74.627686%, 1.734924%)" offset="0.0976563"/><stop stop-opacity="1" stop-color="rgb(100%, 74.351501%, 1.863098%)" offset="0.101563"/><stop stop-opacity="1" stop-color="rgb(100%, 74.075317%, 1.989746%)" offset="0.105469"/><stop stop-opacity="1" stop-color="rgb(100%, 73.799133%, 2.116394%)" offset="0.109375"/><stop stop-opacity="1" stop-color="rgb(100%, 73.522949%, 2.243042%)" offset="0.113281"/><stop stop-opacity="1" stop-color="rgb(100%, 73.248291%, 2.371216%)" offset="0.117188"/><stop stop-opacity="1" stop-color="rgb(100%, 72.972107%, 2.497864%)" offset="0.121094"/><stop stop-opacity="1" stop-color="rgb(100%, 72.695923%, 2.626038%)" offset="0.125"/><stop stop-opacity="1" stop-color="rgb(100%, 72.419739%, 2.752686%)" offset="0.128906"/><stop stop-opacity="1" stop-color="rgb(100%, 72.143555%, 2.879333%)" offset="0.132812"/><stop stop-opacity="1" stop-color="rgb(100%, 71.867371%, 3.005981%)" offset="0.136719"/><stop stop-opacity="1" stop-color="rgb(100%, 71.591187%, 3.134155%)" offset="0.140625"/><stop stop-opacity="1" stop-color="rgb(100%, 71.315002%, 3.260803%)" offset="0.144531"/><stop stop-opacity="1" stop-color="rgb(100%, 71.038818%, 3.388977%)" offset="0.148438"/><stop stop-opacity="1" stop-color="rgb(100%, 70.762634%, 3.515625%)" offset="0.152344"/><stop stop-opacity="1" stop-color="rgb(100%, 70.48645%, 3.642273%)" offset="0.15625"/><stop stop-opacity="1" stop-color="rgb(100%, 70.210266%, 3.768921%)" offset="0.160156"/><stop stop-opacity="1" stop-color="rgb(100%, 69.934082%, 3.897095%)" offset="0.164063"/><stop stop-opacity="1" stop-color="rgb(100%, 69.657898%, 4.023743%)" offset="0.167969"/><stop stop-opacity="1" stop-color="rgb(100%, 69.38324%, 4.150391%)" offset="0.171875"/><stop stop-opacity="1" stop-color="rgb(100%, 69.107056%, 4.277039%)" offset="0.175781"/><stop stop-opacity="1" stop-color="rgb(100%, 68.830872%, 4.405212%)" offset="0.179688"/><stop stop-opacity="1" stop-color="rgb(100%, 68.554688%, 4.53186%)" offset="0.183594"/><stop stop-opacity="1" stop-color="rgb(100%, 68.278503%, 4.660034%)" offset="0.1875"/><stop stop-opacity="1" stop-color="rgb(100%, 68.002319%, 4.786682%)" offset="0.191406"/><stop stop-opacity="1" stop-color="rgb(100%, 67.726135%, 4.91333%)" offset="0.195313"/><stop stop-opacity="1" stop-color="rgb(100%, 67.449951%, 5.039978%)" offset="0.199219"/><stop stop-opacity="1" stop-color="rgb(100%, 67.173767%, 5.168152%)" offset="0.203125"/><stop stop-opacity="1" stop-color="rgb(100%, 66.897583%, 5.2948%)" offset="0.207031"/><stop stop-opacity="1" stop-color="rgb(100%, 66.621399%, 5.421448%)" offset="0.210938"/><stop stop-opacity="1" stop-color="rgb(100%, 66.345215%, 5.548096%)" offset="0.214844"/><stop stop-opacity="1" stop-color="rgb(100%, 66.070557%, 5.67627%)" offset="0.21875"/><stop stop-opacity="1" stop-color="rgb(100%, 65.794373%, 5.802917%)" offset="0.222656"/><stop stop-opacity="1" stop-color="rgb(100%, 65.518188%, 5.931091%)" offset="0.226563"/><stop stop-opacity="1" stop-color="rgb(100%, 65.242004%, 6.057739%)" offset="0.230469"/><stop stop-opacity="1" stop-color="rgb(100%, 64.96582%, 6.184387%)" offset="0.234375"/><stop stop-opacity="1" stop-color="rgb(100%, 64.689636%, 6.311035%)" offset="0.238281"/><stop stop-opacity="1" stop-color="rgb(100%, 64.413452%, 6.439209%)" offset="0.242188"/><stop stop-opacity="1" stop-color="rgb(100%, 64.137268%, 6.565857%)" offset="0.246094"/><stop stop-opacity="1" stop-color="rgb(100%, 63.861084%, 6.694031%)" offset="0.25"/><stop stop-opacity="1" stop-color="rgb(100%, 63.5849%, 6.820679%)" offset="0.253906"/><stop stop-opacity="1" stop-color="rgb(100%, 63.308716%, 6.947327%)" offset="0.257812"/><stop stop-opacity="1" stop-color="rgb(100%, 63.032532%, 7.073975%)" offset="0.261719"/><stop stop-opacity="1" stop-color="rgb(100%, 62.756348%, 7.202148%)" offset="0.265625"/><stop stop-opacity="1" stop-color="rgb(100%, 62.480164%, 7.328796%)" offset="0.269531"/><stop stop-opacity="1" stop-color="rgb(100%, 62.205505%, 7.455444%)" offset="0.273438"/><stop stop-opacity="1" stop-color="rgb(100%, 61.929321%, 7.582092%)" offset="0.277344"/><stop stop-opacity="1" stop-color="rgb(100%, 61.653137%, 7.710266%)" offset="0.28125"/><stop stop-opacity="1" stop-color="rgb(100%, 61.376953%, 7.836914%)" offset="0.285156"/><stop stop-opacity="1" stop-color="rgb(100%, 61.100769%, 7.965088%)" offset="0.289062"/><stop stop-opacity="1" stop-color="rgb(100%, 60.824585%, 8.091736%)" offset="0.292969"/><stop stop-opacity="1" stop-color="rgb(100%, 60.548401%, 8.218384%)" offset="0.296875"/><stop stop-opacity="1" stop-color="rgb(100%, 60.272217%, 8.345032%)" offset="0.300781"/><stop stop-opacity="1" stop-color="rgb(100%, 59.996033%, 8.473206%)" offset="0.304688"/><stop stop-opacity="1" stop-color="rgb(100%, 59.719849%, 8.599854%)" offset="0.308594"/><stop stop-opacity="1" stop-color="rgb(100%, 59.443665%, 8.728027%)" offset="0.3125"/><stop stop-opacity="1" stop-color="rgb(100%, 59.16748%, 8.854675%)" offset="0.316406"/><stop stop-opacity="1" stop-color="rgb(100%, 58.891296%, 8.981323%)" offset="0.320313"/><stop stop-opacity="1" stop-color="rgb(100%, 58.615112%, 9.107971%)" offset="0.324219"/><stop stop-opacity="1" stop-color="rgb(100%, 58.340454%, 9.236145%)" offset="0.328125"/><stop stop-opacity="1" stop-color="rgb(100%, 58.06427%, 9.362793%)" offset="0.332031"/><stop stop-opacity="1" stop-color="rgb(100%, 57.788086%, 9.489441%)" offset="0.335938"/><stop stop-opacity="1" stop-color="rgb(100%, 57.511902%, 9.616089%)" offset="0.339844"/><stop stop-opacity="1" stop-color="rgb(100%, 57.235718%, 9.744263%)" offset="0.34375"/><stop stop-opacity="1" stop-color="rgb(100%, 56.959534%, 9.870911%)" offset="0.347656"/><stop stop-opacity="1" stop-color="rgb(100%, 56.68335%, 9.999084%)" offset="0.351563"/><stop stop-opacity="1" stop-color="rgb(100%, 56.407166%, 10.125732%)" offset="0.355469"/><stop stop-opacity="1" stop-color="rgb(100%, 56.130981%, 10.25238%)" offset="0.359375"/><stop stop-opacity="1" stop-color="rgb(100%, 55.854797%, 10.379028%)" offset="0.363281"/><stop stop-opacity="1" stop-color="rgb(100%, 55.578613%, 10.507202%)" offset="0.367188"/><stop stop-opacity="1" stop-color="rgb(100%, 55.302429%, 10.63385%)" offset="0.371094"/><stop stop-opacity="1" stop-color="rgb(100%, 55.027771%, 10.760498%)" offset="0.375"/><stop stop-opacity="1" stop-color="rgb(100%, 54.751587%, 10.887146%)" offset="0.378906"/><stop stop-opacity="1" stop-color="rgb(100%, 54.475403%, 11.01532%)" offset="0.382813"/><stop stop-opacity="1" stop-color="rgb(100%, 54.199219%, 11.141968%)" offset="0.386719"/><stop stop-opacity="1" stop-color="rgb(100%, 53.923035%, 11.270142%)" offset="0.390625"/><stop stop-opacity="1" stop-color="rgb(100%, 53.646851%, 11.39679%)" offset="0.394531"/><stop stop-opacity="1" stop-color="rgb(100%, 53.370667%, 11.523438%)" offset="0.398438"/><stop stop-opacity="1" stop-color="rgb(100%, 53.094482%, 11.650085%)" offset="0.402344"/><stop stop-opacity="1" stop-color="rgb(100%, 52.818298%, 11.778259%)" offset="0.40625"/><stop stop-opacity="1" stop-color="rgb(100%, 52.542114%, 11.904907%)" offset="0.410156"/><stop stop-opacity="1" stop-color="rgb(100%, 52.26593%, 12.033081%)" offset="0.414063"/><stop stop-opacity="1" stop-color="rgb(100%, 51.989746%, 12.159729%)" offset="0.417969"/><stop stop-opacity="1" stop-color="rgb(100%, 51.713562%, 12.286377%)" offset="0.421875"/><stop stop-opacity="1" stop-color="rgb(100%, 51.437378%, 12.413025%)" offset="0.425781"/><stop stop-opacity="1" stop-color="rgb(100%, 51.16272%, 12.541199%)" offset="0.429688"/><stop stop-opacity="1" stop-color="rgb(100%, 50.886536%, 12.667847%)" offset="0.433594"/><stop stop-opacity="1" stop-color="rgb(100%, 50.610352%, 12.794495%)" offset="0.4375"/><stop stop-opacity="1" stop-color="rgb(100%, 50.334167%, 12.921143%)" offset="0.441406"/><stop stop-opacity="1" stop-color="rgb(100%, 50.057983%, 13.049316%)" offset="0.445313"/><stop stop-opacity="1" stop-color="rgb(100%, 49.781799%, 13.175964%)" offset="0.449219"/><stop stop-opacity="1" stop-color="rgb(100%, 49.505615%, 13.304138%)" offset="0.453125"/><stop stop-opacity="1" stop-color="rgb(100%, 49.229431%, 13.430786%)" offset="0.457031"/><stop stop-opacity="1" stop-color="rgb(100%, 48.953247%, 13.557434%)" offset="0.460938"/><stop stop-opacity="1" stop-color="rgb(100%, 48.677063%, 13.684082%)" offset="0.464844"/><stop stop-opacity="1" stop-color="rgb(100%, 48.400879%, 13.812256%)" offset="0.46875"/><stop stop-opacity="1" stop-color="rgb(100%, 48.124695%, 13.938904%)" offset="0.472656"/><stop stop-opacity="1" stop-color="rgb(100%, 47.848511%, 14.065552%)" offset="0.476563"/><stop stop-opacity="1" stop-color="rgb(100%, 47.572327%, 14.1922%)" offset="0.480469"/><stop stop-opacity="1" stop-color="rgb(100%, 47.297668%, 14.320374%)" offset="0.484375"/><stop stop-opacity="1" stop-color="rgb(100%, 47.021484%, 14.447021%)" offset="0.488281"/><stop stop-opacity="1" stop-color="rgb(100%, 46.7453%, 14.575195%)" offset="0.492188"/><stop stop-opacity="1" stop-color="rgb(100%, 46.469116%, 14.701843%)" offset="0.496094"/><stop stop-opacity="1" stop-color="rgb(100%, 46.192932%, 14.828491%)" offset="0.5"/><stop stop-opacity="1" stop-color="rgb(100%, 45.916748%, 14.955139%)" offset="0.503906"/><stop stop-opacity="1" stop-color="rgb(100%, 45.640564%, 15.083313%)" offset="0.507813"/><stop stop-opacity="1" stop-color="rgb(100%, 45.36438%, 15.209961%)" offset="0.511719"/><stop stop-opacity="1" stop-color="rgb(100%, 45.088196%, 15.338135%)" offset="0.515625"/><stop stop-opacity="1" stop-color="rgb(100%, 44.812012%, 15.464783%)" offset="0.519531"/><stop stop-opacity="1" stop-color="rgb(100%, 44.535828%, 15.591431%)" offset="0.523438"/><stop stop-opacity="1" stop-color="rgb(100%, 44.259644%, 15.718079%)" offset="0.527344"/><stop stop-opacity="1" stop-color="rgb(100%, 43.983459%, 15.846252%)" offset="0.53125"/><stop stop-opacity="1" stop-color="rgb(100%, 43.707275%, 15.9729%)" offset="0.535156"/><stop stop-opacity="1" stop-color="rgb(100%, 43.432617%, 16.099548%)" offset="0.539062"/><stop stop-opacity="1" stop-color="rgb(100%, 43.156433%, 16.226196%)" offset="0.542969"/><stop stop-opacity="1" stop-color="rgb(100%, 42.880249%, 16.35437%)" offset="0.546875"/><stop stop-opacity="1" stop-color="rgb(100%, 42.604065%, 16.481018%)" offset="0.550781"/><stop stop-opacity="1" stop-color="rgb(100%, 42.327881%, 16.609192%)" offset="0.554688"/><stop stop-opacity="1" stop-color="rgb(100%, 42.051697%, 16.73584%)" offset="0.558594"/><stop stop-opacity="1" stop-color="rgb(100%, 41.775513%, 16.862488%)" offset="0.5625"/><stop stop-opacity="1" stop-color="rgb(100%, 41.499329%, 16.989136%)" offset="0.566406"/><stop stop-opacity="1" stop-color="rgb(100%, 41.223145%, 17.11731%)" offset="0.570312"/><stop stop-opacity="1" stop-color="rgb(100%, 40.94696%, 17.243958%)" offset="0.574219"/><stop stop-opacity="1" stop-color="rgb(100%, 40.670776%, 17.372131%)" offset="0.578125"/><stop stop-opacity="1" stop-color="rgb(100%, 40.394592%, 17.498779%)" offset="0.582031"/><stop stop-opacity="1" stop-color="rgb(100%, 40.119934%, 17.625427%)" offset="0.585938"/><stop stop-opacity="1" stop-color="rgb(100%, 39.84375%, 17.752075%)" offset="0.589844"/><stop stop-opacity="1" stop-color="rgb(100%, 39.567566%, 17.880249%)" offset="0.59375"/><stop stop-opacity="1" stop-color="rgb(100%, 39.291382%, 18.006897%)" offset="0.597656"/><stop stop-opacity="1" stop-color="rgb(100%, 39.015198%, 18.133545%)" offset="0.601562"/><stop stop-opacity="1" stop-color="rgb(100%, 38.739014%, 18.260193%)" offset="0.605469"/><stop stop-opacity="1" stop-color="rgb(100%, 38.46283%, 18.388367%)" offset="0.609375"/><stop stop-opacity="1" stop-color="rgb(100%, 38.186646%, 18.515015%)" offset="0.613281"/><stop stop-opacity="1" stop-color="rgb(100%, 37.910461%, 18.643188%)" offset="0.617188"/><stop stop-opacity="1" stop-color="rgb(100%, 37.634277%, 18.769836%)" offset="0.621094"/><stop stop-opacity="1" stop-color="rgb(100%, 37.358093%, 18.896484%)" offset="0.625"/><stop stop-opacity="1" stop-color="rgb(100%, 37.081909%, 19.023132%)" offset="0.628906"/><stop stop-opacity="1" stop-color="rgb(100%, 36.805725%, 19.151306%)" offset="0.632812"/><stop stop-opacity="1" stop-color="rgb(100%, 36.529541%, 19.277954%)" offset="0.636719"/><stop stop-opacity="1" stop-color="rgb(100%, 36.254883%, 19.404602%)" offset="0.640625"/><stop stop-opacity="1" stop-color="rgb(100%, 35.978699%, 19.53125%)" offset="0.644531"/><stop stop-opacity="1" stop-color="rgb(100%, 35.702515%, 19.659424%)" offset="0.648438"/><stop stop-opacity="1" stop-color="rgb(100%, 35.426331%, 19.786072%)" offset="0.652344"/><stop stop-opacity="1" stop-color="rgb(100%, 35.150146%, 19.914246%)" offset="0.65625"/><stop stop-opacity="1" stop-color="rgb(100%, 34.873962%, 20.040894%)" offset="0.660156"/><stop stop-opacity="1" stop-color="rgb(100%, 34.597778%, 20.167542%)" offset="0.664062"/><stop stop-opacity="1" stop-color="rgb(100%, 34.321594%, 20.294189%)" offset="0.667969"/><stop stop-opacity="1" stop-color="rgb(100%, 34.04541%, 20.422363%)" offset="0.671875"/><stop stop-opacity="1" stop-color="rgb(100%, 33.769226%, 20.549011%)" offset="0.675781"/><stop stop-opacity="1" stop-color="rgb(100%, 33.493042%, 20.677185%)" offset="0.679688"/><stop stop-opacity="1" stop-color="rgb(100%, 33.216858%, 20.803833%)" offset="0.683594"/><stop stop-opacity="1" stop-color="rgb(100%, 32.940674%, 20.930481%)" offset="0.6875"/><stop stop-opacity="1" stop-color="rgb(100%, 32.66449%, 21.057129%)" offset="0.691406"/><stop stop-opacity="1" stop-color="rgb(100%, 32.389832%, 21.185303%)" offset="0.695312"/><stop stop-opacity="1" stop-color="rgb(100%, 32.113647%, 21.311951%)" offset="0.699219"/><stop stop-opacity="1" stop-color="rgb(100%, 31.837463%, 21.438599%)" offset="0.703125"/><stop stop-opacity="1" stop-color="rgb(100%, 31.561279%, 21.565247%)" offset="0.707031"/><stop stop-opacity="1" stop-color="rgb(100%, 31.285095%, 21.69342%)" offset="0.710938"/><stop stop-opacity="1" stop-color="rgb(100%, 31.008911%, 21.820068%)" offset="0.714844"/><stop stop-opacity="1" stop-color="rgb(100%, 30.732727%, 21.948242%)" offset="0.71875"/><stop stop-opacity="1" stop-color="rgb(100%, 30.456543%, 22.07489%)" offset="0.722656"/><stop stop-opacity="1" stop-color="rgb(100%, 30.180359%, 22.201538%)" offset="0.726562"/><stop stop-opacity="1" stop-color="rgb(100%, 29.904175%, 22.328186%)" offset="0.730469"/><stop stop-opacity="1" stop-color="rgb(100%, 29.627991%, 22.45636%)" offset="0.734375"/><stop stop-opacity="1" stop-color="rgb(100%, 29.351807%, 22.583008%)" offset="0.738281"/><stop stop-opacity="1" stop-color="rgb(100%, 29.077148%, 22.709656%)" offset="0.742188"/><stop stop-opacity="1" stop-color="rgb(100%, 28.800964%, 22.836304%)" offset="0.746094"/><stop stop-opacity="1" stop-color="rgb(100%, 28.52478%, 22.964478%)" offset="0.75"/><stop stop-opacity="1" stop-color="rgb(100%, 28.248596%, 23.091125%)" offset="0.753906"/><stop stop-opacity="1" stop-color="rgb(100%, 27.972412%, 23.219299%)" offset="0.757813"/><stop stop-opacity="1" stop-color="rgb(100%, 27.696228%, 23.345947%)" offset="0.761719"/><stop stop-opacity="1" stop-color="rgb(100%, 27.420044%, 23.472595%)" offset="0.765625"/><stop stop-opacity="1" stop-color="rgb(100%, 27.14386%, 23.599243%)" offset="0.769531"/><stop stop-opacity="1" stop-color="rgb(100%, 26.867676%, 23.727417%)" offset="0.773438"/><stop stop-opacity="1" stop-color="rgb(100%, 26.591492%, 23.854065%)" offset="0.777344"/><stop stop-opacity="1" stop-color="rgb(100%, 26.315308%, 23.982239%)" offset="0.78125"/><stop stop-opacity="1" stop-color="rgb(100%, 26.039124%, 24.108887%)" offset="0.785156"/><stop stop-opacity="1" stop-color="rgb(100%, 25.762939%, 24.235535%)" offset="0.789063"/><stop stop-opacity="1" stop-color="rgb(100%, 25.486755%, 24.362183%)" offset="0.792969"/><stop stop-opacity="1" stop-color="rgb(100%, 25.212097%, 24.490356%)" offset="0.796875"/><stop stop-opacity="1" stop-color="rgb(100%, 24.935913%, 24.617004%)" offset="0.800781"/><stop stop-opacity="1" stop-color="rgb(100%, 24.659729%, 24.743652%)" offset="0.804688"/><stop stop-opacity="1" stop-color="rgb(100%, 24.383545%, 24.8703%)" offset="0.808594"/><stop stop-opacity="1" stop-color="rgb(100%, 24.107361%, 24.998474%)" offset="0.8125"/><stop stop-opacity="1" stop-color="rgb(100%, 23.831177%, 25.125122%)" offset="0.816406"/><stop stop-opacity="1" stop-color="rgb(100%, 23.554993%, 25.253296%)" offset="0.820313"/><stop stop-opacity="1" stop-color="rgb(100%, 23.278809%, 25.379944%)" offset="0.824219"/><stop stop-opacity="1" stop-color="rgb(100%, 23.002625%, 25.506592%)" offset="0.828125"/><stop stop-opacity="1" stop-color="rgb(100%, 22.72644%, 25.63324%)" offset="0.832031"/><stop stop-opacity="1" stop-color="rgb(100%, 22.450256%, 25.761414%)" offset="0.835938"/><stop stop-opacity="1" stop-color="rgb(100%, 22.174072%, 25.888062%)" offset="0.839844"/><stop stop-opacity="1" stop-color="rgb(100%, 21.897888%, 26.014709%)" offset="0.84375"/><stop stop-opacity="1" stop-color="rgb(100%, 21.621704%, 26.141357%)" offset="0.847656"/><stop stop-opacity="1" stop-color="rgb(100%, 21.347046%, 26.269531%)" offset="0.851563"/><stop stop-opacity="1" stop-color="rgb(100%, 21.070862%, 26.396179%)" offset="0.855469"/><stop stop-opacity="1" stop-color="rgb(100%, 20.794678%, 26.524353%)" offset="0.859375"/><stop stop-opacity="1" stop-color="rgb(100%, 20.518494%, 26.651001%)" offset="0.863281"/><stop stop-opacity="1" stop-color="rgb(100%, 20.24231%, 26.777649%)" offset="0.867188"/><stop stop-opacity="1" stop-color="rgb(100%, 19.966125%, 26.904297%)" offset="0.871094"/><stop stop-opacity="1" stop-color="rgb(100%, 19.689941%, 27.032471%)" offset="0.875"/><stop stop-opacity="1" stop-color="rgb(100%, 19.413757%, 27.159119%)" offset="0.878906"/><stop stop-opacity="1" stop-color="rgb(100%, 19.137573%, 27.287292%)" offset="0.882813"/><stop stop-opacity="1" stop-color="rgb(100%, 18.861389%, 27.41394%)" offset="0.886719"/><stop stop-opacity="1" stop-color="rgb(100%, 18.585205%, 27.540588%)" offset="0.890625"/><stop stop-opacity="1" stop-color="rgb(100%, 18.309021%, 27.667236%)" offset="0.894531"/><stop stop-opacity="1" stop-color="rgb(100%, 18.034363%, 27.79541%)" offset="0.898438"/><stop stop-opacity="1" stop-color="rgb(100%, 17.758179%, 27.922058%)" offset="0.902344"/><stop stop-opacity="1" stop-color="rgb(100%, 17.481995%, 28.048706%)" offset="0.90625"/><stop stop-opacity="1" stop-color="rgb(100%, 17.205811%, 28.175354%)" offset="0.910156"/><stop stop-opacity="1" stop-color="rgb(100%, 16.929626%, 28.303528%)" offset="0.914063"/><stop stop-opacity="1" stop-color="rgb(100%, 16.653442%, 28.430176%)" offset="0.917969"/><stop stop-opacity="1" stop-color="rgb(100%, 16.377258%, 28.55835%)" offset="0.921875"/><stop stop-opacity="1" stop-color="rgb(100%, 16.101074%, 28.684998%)" offset="0.925781"/><stop stop-opacity="1" stop-color="rgb(100%, 15.82489%, 28.811646%)" offset="0.929688"/><stop stop-opacity="1" stop-color="rgb(100%, 15.548706%, 28.938293%)" offset="0.933594"/><stop stop-opacity="1" stop-color="rgb(100%, 15.272522%, 29.066467%)" offset="0.9375"/><stop stop-opacity="1" stop-color="rgb(100%, 14.996338%, 29.193115%)" offset="0.941406"/><stop stop-opacity="1" stop-color="rgb(100%, 14.720154%, 29.321289%)" offset="0.945313"/><stop stop-opacity="1" stop-color="rgb(100%, 14.44397%, 29.447937%)" offset="0.949219"/><stop stop-opacity="1" stop-color="rgb(100%, 14.169312%, 29.574585%)" offset="0.953125"/><stop stop-opacity="1" stop-color="rgb(100%, 13.893127%, 29.701233%)" offset="0.957031"/><stop stop-opacity="1" stop-color="rgb(100%, 13.616943%, 29.829407%)" offset="0.960938"/><stop stop-opacity="1" stop-color="rgb(100%, 13.340759%, 29.956055%)" offset="0.964844"/><stop stop-opacity="1" stop-color="rgb(100%, 13.064575%, 30.082703%)" offset="0.96875"/><stop stop-opacity="1" stop-color="rgb(100%, 12.788391%, 30.209351%)" offset="0.972656"/><stop stop-opacity="1" stop-color="rgb(100%, 12.512207%, 30.337524%)" offset="0.976563"/><stop stop-opacity="1" stop-color="rgb(100%, 12.236023%, 30.464172%)" offset="0.980469"/><stop stop-opacity="1" stop-color="rgb(100%, 11.959839%, 30.592346%)" offset="0.984375"/><stop stop-opacity="1" stop-color="rgb(100%, 11.683655%, 30.718994%)" offset="0.988281"/><stop stop-opacity="1" stop-color="rgb(100%, 11.407471%, 30.845642%)" offset="0.992187"/><stop stop-opacity="1" stop-color="rgb(100%, 11.131287%, 30.97229%)" offset="0.996094"/><stop stop-opacity="1" stop-color="rgb(100%, 10.855103%, 31.100464%)" offset="1"/></linearGradient><clipPath id="223c61d1f5"><path d="M 0 203 L 375 203 L 375 220 L 0 220 Z M 0 203 " clip-rule="nonzero"/></clipPath><clipPath id="b99d6e2312"><path d="M 2.746094 219.632812 L 372.242188 219.632812 C 373.167969 214.289062 373.863281 208.871094 374.324219 203.382812 L 0.664062 203.382812 C 1.125 208.871094 1.820312 214.289062 2.746094 219.632812 Z M 2.746094 219.632812 " clip-rule="nonzero"/></clipPath><linearGradient x1="424.83701" gradientTransform="matrix(0.441332, 0, 0, 0.441332, 0.0000045, 0)" y1="460.839308" x2="424.83701" gradientUnits="userSpaceOnUse" y2="497.65459" id="16313e147b"><stop stop-opacity="1" stop-color="rgb(100%, 2.105713%, 35.128784%)" offset="0"/><stop stop-opacity="1" stop-color="rgb(100%, 2.006531%, 35.174561%)" offset="0.03125"/><stop stop-opacity="1" stop-color="rgb(100%, 1.808167%, 35.266113%)" offset="0.0625"/><stop stop-opacity="1" stop-color="rgb(100%, 1.609802%, 35.357666%)" offset="0.09375"/><stop stop-opacity="1" stop-color="rgb(100%, 1.411438%, 35.449219%)" offset="0.125"/><stop stop-opacity="1" stop-color="rgb(100%, 1.213074%, 35.539246%)" offset="0.15625"/><stop stop-opacity="1" stop-color="rgb(100%, 1.014709%, 35.630798%)" offset="0.1875"/><stop stop-opacity="1" stop-color="rgb(100%, 0.817871%, 35.722351%)" offset="0.21875"/><stop stop-opacity="1" stop-color="rgb(100%, 0.619507%, 35.813904%)" offset="0.25"/><stop stop-opacity="1" stop-color="rgb(100%, 0.421143%, 35.905457%)" offset="0.28125"/><stop stop-opacity="1" stop-color="rgb(100%, 0.222778%, 35.997009%)" offset="0.3125"/><stop stop-opacity="1" stop-color="rgb(99.961853%, 0.0610352%, 36.166382%)" offset="0.375"/><stop stop-opacity="1" stop-color="rgb(99.868774%, 0%, 36.427307%)" offset="0.4375"/><stop stop-opacity="1" stop-color="rgb(99.758911%, 0%, 36.705017%)" offset="0.5"/><stop stop-opacity="1" stop-color="rgb(99.649048%, 0%, 36.982727%)" offset="0.5625"/><stop stop-opacity="1" stop-color="rgb(99.539185%, 0%, 37.258911%)" offset="0.625"/><stop stop-opacity="1" stop-color="rgb(99.430847%, 0%, 37.536621%)" offset="0.6875"/><stop stop-opacity="1" stop-color="rgb(99.320984%, 0%, 37.814331%)" offset="0.75"/><stop stop-opacity="1" stop-color="rgb(99.211121%, 0%, 38.090515%)" offset="0.8125"/><stop stop-opacity="1" stop-color="rgb(99.101257%, 0%, 38.368225%)" offset="0.875"/><stop stop-opacity="1" stop-color="rgb(98.991394%, 0%, 38.644409%)" offset="0.9375"/><stop stop-opacity="1" stop-color="rgb(98.881531%, 0%, 38.922119%)" offset="1"/></linearGradient><clipPath id="66854c2ff4"><path d="M 0 182 L 375 182 L 375 201 L 0 201 Z M 0 182 " clip-rule="nonzero"/></clipPath><clipPath id="0fb585cd6e"><path d="M 374.925781 182.515625 L 0.0664062 182.515625 C 0.0234375 184.171875 0 185.828125 0 187.492188 C 0 191.796875 0.144531 196.070312 0.429688 200.300781 L 374.558594 200.300781 C 374.84375 196.070312 374.988281 191.796875 374.988281 187.492188 C 374.988281 185.828125 374.96875 184.171875 374.925781 182.515625 Z M 374.925781 182.515625 " clip-rule="nonzero"/></clipPath><linearGradient x1="424.83701" gradientTransform="matrix(0.441332, 0, 0, 0.441332, 0.0000045, 0)" y1="413.560317" x2="424.83701" gradientUnits="userSpaceOnUse" y2="453.858818" id="0e73924825"><stop stop-opacity="1" stop-color="rgb(100%, 10.253906%, 31.376648%)" offset="0"/><stop stop-opacity="1" stop-color="rgb(100%, 10.145569%, 31.427002%)" offset="0.03125"/><stop stop-opacity="1" stop-color="rgb(100%, 9.928894%, 31.526184%)" offset="0.0625"/><stop stop-opacity="1" stop-color="rgb(100%, 9.710693%, 31.626892%)" offset="0.09375"/><stop stop-opacity="1" stop-color="rgb(100%, 9.494019%, 31.726074%)" offset="0.125"/><stop stop-opacity="1" stop-color="rgb(100%, 9.277344%, 31.826782%)" offset="0.15625"/><stop stop-opacity="1" stop-color="rgb(100%, 9.060669%, 31.925964%)" offset="0.1875"/><stop stop-opacity="1" stop-color="rgb(100%, 8.842468%, 32.026672%)" offset="0.21875"/><stop stop-opacity="1" stop-color="rgb(100%, 8.625793%, 32.125854%)" offset="0.25"/><stop stop-opacity="1" stop-color="rgb(100%, 8.409119%, 32.226562%)" offset="0.28125"/><stop stop-opacity="1" stop-color="rgb(100%, 8.192444%, 32.325745%)" offset="0.3125"/><stop stop-opacity="1" stop-color="rgb(100%, 7.975769%, 32.426453%)" offset="0.34375"/><stop stop-opacity="1" stop-color="rgb(100%, 7.757568%, 32.525635%)" offset="0.375"/><stop stop-opacity="1" stop-color="rgb(100%, 7.540894%, 32.626343%)" offset="0.40625"/><stop stop-opacity="1" stop-color="rgb(100%, 7.324219%, 32.725525%)" offset="0.4375"/><stop stop-opacity="1" stop-color="rgb(100%, 7.107544%, 32.826233%)" offset="0.46875"/><stop stop-opacity="1" stop-color="rgb(100%, 6.889343%, 32.925415%)" offset="0.5"/><stop stop-opacity="1" stop-color="rgb(100%, 6.672668%, 33.026123%)" offset="0.53125"/><stop stop-opacity="1" stop-color="rgb(100%, 6.455994%, 33.125305%)" offset="0.5625"/><stop stop-opacity="1" stop-color="rgb(100%, 6.239319%, 33.226013%)" offset="0.59375"/><stop stop-opacity="1" stop-color="rgb(100%, 6.021118%, 33.325195%)" offset="0.625"/><stop stop-opacity="1" stop-color="rgb(100%, 5.804443%, 33.425903%)" offset="0.65625"/><stop stop-opacity="1" stop-color="rgb(100%, 5.587769%, 33.525085%)" offset="0.6875"/><stop stop-opacity="1" stop-color="rgb(100%, 5.371094%, 33.625793%)" offset="0.71875"/><stop stop-opacity="1" stop-color="rgb(100%, 5.152893%, 33.724976%)" offset="0.75"/><stop stop-opacity="1" stop-color="rgb(100%, 4.936218%, 33.825684%)" offset="0.78125"/><stop stop-opacity="1" stop-color="rgb(100%, 4.719543%, 33.924866%)" offset="0.8125"/><stop stop-opacity="1" stop-color="rgb(100%, 4.502869%, 34.025574%)" offset="0.84375"/><stop stop-opacity="1" stop-color="rgb(100%, 4.284668%, 34.124756%)" offset="0.875"/><stop stop-opacity="1" stop-color="rgb(100%, 4.067993%, 34.225464%)" offset="0.90625"/><stop stop-opacity="1" stop-color="rgb(100%, 3.851318%, 34.324646%)" offset="0.9375"/><stop stop-opacity="1" stop-color="rgb(100%, 3.634644%, 34.425354%)" offset="0.96875"/><stop stop-opacity="1" stop-color="rgb(100%, 3.416443%, 34.524536%)" offset="1"/></linearGradient><clipPath id="190bf3631a"><path d="M 0 49 L 374.808594 49 L 374.808594 119 L 0 119 Z M 0 49 " clip-rule="nonzero"/></clipPath></defs><g clip-path="url(#8506a2792f)"><g clip-path="url(#8f281fd1d1)"><path fill="url(#0c67c9cb45)" d="M 28.464844 286.855469 L 28.464844 296.941406 L 346.523438 296.941406 L 346.523438 286.855469 Z M 28.464844 286.855469 " fill-rule="nonzero"/></g></g><g clip-path="url(#15b0d07951)"><g clip-path="url(#4d68223f00)"><path fill="url(#95627dd0bf)" d="M 17.175781 265.988281 L 17.175781 277.613281 L 357.8125 277.613281 L 357.8125 265.988281 Z M 17.175781 265.988281 " fill-rule="nonzero"/></g></g><g clip-path="url(#4c095e64dd)"><g clip-path="url(#90df0e420d)"><path fill="url(#012eeac878)" d="M 9.023438 245.121094 L 9.023438 258.285156 L 365.964844 258.285156 L 365.964844 245.121094 Z M 9.023438 245.121094 " fill-rule="nonzero"/></g></g><g clip-path="url(#b9f5a0b600)"><g clip-path="url(#efa07de44d)"><path fill="url(#04f7979877)" d="M 43.621094 307.722656 L 43.621094 316.265625 L 331.367188 316.265625 L 331.367188 307.722656 Z M 43.621094 307.722656 " fill-rule="nonzero"/></g></g><g clip-path="url(#b62ae65210)"><g clip-path="url(#1539c47f52)"><path fill="#d400c9" d="M 145.769531 370.324219 L 145.769531 374.984375 L 229.222656 374.984375 L 229.222656 370.324219 Z M 145.769531 370.324219 " fill-opacity="1" fill-rule="nonzero"/></g></g><g clip-path="url(#d399a43cba)"><g clip-path="url(#e15675a422)"><path fill="url(#266deb536a)" d="M 64.019531 328.589844 L 64.019531 335.59375 L 310.96875 335.59375 L 310.96875 328.589844 Z M 64.019531 328.589844 " fill-rule="nonzero"/></g></g><g clip-path="url(#5c8bce58b1)"><g clip-path="url(#db43ba54fa)"><path fill="url(#e18aa6d7f7)" d="M 92.980469 349.457031 L 92.980469 354.921875 L 282.003906 354.921875 L 282.003906 349.457031 Z M 92.980469 349.457031 " fill-rule="nonzero"/></g></g><g clip-path="url(#b27bcd89ea)"><g clip-path="url(#3419618105)"><path fill="url(#044a6cfbdb)" d="M 3.605469 224.253906 L 3.605469 238.960938 L 371.382812 238.960938 L 371.382812 224.253906 Z M 3.605469 224.253906 " fill-rule="nonzero"/></g></g><g clip-path="url(#bb86b1713e)"><g clip-path="url(#a6a260db0f)"><path fill="url(#53c76d6264)" d="M 0.109375 0 L 0.109375 180.976562 L 374.878906 180.976562 L 374.878906 0 Z M 0.109375 0 " fill-rule="nonzero"/></g></g><g clip-path="url(#223c61d1f5)"><g clip-path="url(#b99d6e2312)"><path fill="url(#16313e147b)" d="M 0.664062 203.382812 L 0.664062 219.632812 L 374.324219 219.632812 L 374.324219 203.382812 Z M 0.664062 203.382812 " fill-rule="nonzero"/></g></g><g clip-path="url(#66854c2ff4)"><g clip-path="url(#0fb585cd6e)"><path fill="url(#0e73924825)" d="M 0 182.515625 L 0 200.300781 L 374.988281 200.300781 L 374.988281 182.515625 Z M 0 182.515625 " fill-rule="nonzero"/></g></g><g clip-path="url(#190bf3631a)"><path fill="#e690bd" d="M 110.164062 106.542969 L 116.441406 116.914062 C 114.679688 112.035156 114.078125 107.40625 114.296875 103.089844 L 109.714844 97.972656 C 107.398438 95.386719 105.773438 92.652344 104.632812 90.035156 C 105.453125 98.894531 110.148438 106.511719 110.164062 106.542969 Z M 334.90625 118.566406 L 356.164062 81.730469 L 242.5 78.019531 L 358.308594 78.019531 L 365.703125 65.195312 L 221.628906 60.488281 L 368.417969 60.488281 L 374.78125 49.46875 L 192.070312 49.46875 C 204.894531 56.628906 209.164062 69.390625 215.09375 83.769531 C 207.289062 75.730469 202.0625 70.363281 192.335938 64.347656 C 196.929688 70.625 198.792969 80.0625 199.542969 83.8125 C 193.875 77.363281 190.164062 73.257812 183.117188 68.109375 C 186.15625 72.894531 187.132812 77.457031 188.714844 82.8125 C 183.703125 78.121094 178.261719 72.109375 172.234375 69.023438 C 175.246094 72.824219 177.75 78.128906 180.113281 82.417969 C 183.085938 86.230469 185.136719 90.851562 185.660156 96.410156 C 185.933594 99.253906 185.796875 102.332031 185.171875 105.660156 C 198.246094 98.609375 213.828125 92.472656 226.132812 104.714844 C 229.792969 108.351562 232.398438 113.171875 233.929688 118.566406 L 240.398438 118.566406 C 243.265625 114.476562 246.816406 110.683594 251.011719 108.082031 C 256.15625 104.894531 262.15625 103.527344 268.933594 105.375 C 277.039062 107.589844 282.773438 112.589844 287.699219 118.566406 Z M 275.308594 118.566406 C 274.492188 118.386719 273.6875 118.234375 272.90625 118.121094 C 273.226562 118.265625 273.535156 118.417969 273.832031 118.566406 Z M 79.664062 49.46875 L 77.136719 49.46875 C 71.25 52.8125 64.972656 57.554688 59.839844 60.988281 C 62.359375 57.101562 64.910156 53.164062 67.703125 49.46875 L -0.914062 49.46875 L 23.378906 91.5625 L 72.296875 94.613281 L 25.132812 94.613281 L 38.957031 118.566406 L 98.71875 118.566406 C 90.257812 110.179688 83.765625 99.164062 84.605469 86.96875 C 84.960938 81.730469 86.671875 76.914062 89.441406 72.84375 C 90.9375 70.644531 92.742188 68.664062 94.820312 66.949219 L 100.839844 60.53125 C 102.109375 59.179688 103.519531 58.09375 104.960938 57.226562 C 97.609375 57.914062 90.691406 60.488281 90.664062 60.5 L 81.738281 63.769531 L 87.925781 56.558594 C 90.132812 53.984375 92.460938 52.101562 94.734375 50.730469 C 85.859375 52.3125 78.773438 57.570312 71.320312 62.230469 C 74.113281 57.367188 76.101562 53.285156 79.664062 49.46875 Z M 151.378906 118.566406 C 151.160156 117.753906 150.945312 116.957031 150.726562 116.175781 L 143.265625 110.363281 C 142.511719 109.777344 141.785156 109.132812 141.082031 108.449219 C 143.269531 112.960938 145.632812 116.976562 146.59375 118.566406 Z M 138.484375 118.566406 L 138.25 118.347656 L 138.359375 118.566406 Z M 117.078125 118.566406 C 116.964844 118.289062 116.851562 118.015625 116.746094 117.738281 L 106.527344 109.777344 C 103.390625 107.335938 100.96875 104.730469 99.097656 102.214844 C 101.242188 109.664062 104.996094 116.132812 106.507812 118.566406 Z M 191.351562 118.566406 C 195.3125 117.015625 196.90625 116.125 202.21875 114.878906 C 197.242188 114.238281 190.90625 114.757812 184.132812 116.125 C 192.65625 110.402344 200.507812 108.089844 204.550781 107.445312 C 197.230469 106.269531 189.425781 107.464844 184.292969 109.714844 C 183.855469 110.976562 182.515625 114.628906 181.945312 115.957031 C 181.90625 116.050781 181.785156 116.445312 180.753906 118.566406 Z M 142.113281 88.378906 C 141.699219 87.191406 141.335938 86.160156 141.011719 85.277344 L 138.96875 79.339844 C 138.746094 84.304688 139.484375 88.902344 140.433594 92.382812 C 142.734375 100.796875 146.851562 107.023438 146.867188 107.054688 L 148.980469 110.292969 L 149.0625 110.230469 C 148.714844 109 148.390625 107.882812 148.125 106.988281 C 147.660156 105.417969 147.21875 103.964844 146.820312 102.707031 C 145.890625 99.804688 145.515625 98.480469 144.609375 95.71875 C 144.15625 94.335938 143.699219 92.960938 143.230469 91.59375 C 142.863281 90.515625 142.484375 89.460938 142.113281 88.378906 Z M 176.019531 108.964844 C 174.886719 112.152344 173.074219 115.421875 171.195312 118.566406 L 174.855469 118.566406 C 175.578125 115.496094 175.960938 112.082031 176.019531 108.964844 Z M 163.429688 113.15625 C 164.0625 114.957031 164.695312 116.757812 165.304688 118.566406 L 167.683594 118.566406 C 169.007812 112.351562 170.082031 106.625 168.871094 99.824219 C 167.96875 104.40625 165.429688 108.933594 163.429688 113.15625 Z M 158.078125 98.949219 C 159.5625 102.664062 161.046875 106.421875 162.382812 110.191406 C 162.269531 103.484375 161.746094 99.128906 160.070312 93.273438 C 159.65625 95.347656 158.882812 97.03125 158.078125 98.949219 Z M 118.578125 85.546875 L 117.472656 90.195312 C 120.941406 82.378906 126.496094 76.359375 130.449219 72.75 C 120.644531 76.390625 118.585938 85.519531 118.578125 85.546875 Z M 113.957031 95.683594 L 114.792969 98.796875 C 115.136719 96.882812 115.636719 95.035156 116.25 93.269531 L 113.804688 85.742188 C 113.597656 85.109375 113.421875 84.488281 113.273438 83.882812 C 112.425781 90.183594 113.949219 95.65625 113.957031 95.683594 Z M 113.957031 95.683594 " fill-opacity="1" fill-rule="evenodd"/></g><path fill="#e26daa" d="M 255.445312 160.789062 C 256.445312 162.035156 257.378906 163.339844 258.246094 164.707031 C 258.238281 162.582031 257.9375 159.691406 256.75 156.789062 C 256.546875 157.835938 256.222656 158.941406 255.738281 160.09375 Z M 294.507812 188.574219 L 323.203125 138.847656 L 282.195312 138.847656 L 324.96875 135.789062 L 332.980469 121.898438 L 290.300781 121.898438 C 291.363281 123.324219 292.402344 124.78125 293.425781 126.253906 C 291.335938 124.867188 288.425781 123.300781 285.214844 121.898438 L 278.851562 121.898438 C 281.570312 124.214844 283.285156 126.671875 284.5625 128.496094 C 277 125.898438 271.566406 124.523438 265.0625 124.5 C 270.332031 126.40625 273.296875 129.078125 276.257812 132.304688 C 269.21875 131.644531 263.804688 131.414062 257.90625 132.054688 C 262.136719 133.574219 265.429688 136.132812 268.226562 138.636719 C 273.0625 140.554688 277.417969 143.496094 280.84375 147.132812 C 284.304688 150.816406 286.84375 155.226562 287.992188 160.046875 C 290.898438 172.21875 285.308594 181.578125 277.347656 188.574219 Z M 234.730469 121.898438 C 235.066406 123.621094 235.304688 125.394531 235.441406 127.1875 C 236.269531 125.417969 237.207031 123.636719 238.242188 121.898438 Z M 270.507812 188.574219 C 273.34375 183.207031 275.492188 177.457031 275.699219 171.300781 C 274.125 174.058594 271.726562 177.078125 268.082031 179.980469 L 264.109375 183.144531 C 264.167969 184.921875 264.078125 186.738281 263.832031 188.574219 Z M 241.675781 188.574219 L 241.917969 187.984375 C 241.734375 188.183594 241.539062 188.382812 241.351562 188.574219 Z M 232.945312 188.574219 C 235.0625 184.910156 236.972656 181.121094 238.542969 176.800781 C 235.703125 179.859375 232.636719 182.449219 228.53125 185.542969 C 232.410156 176.582031 236.539062 166.757812 233.679688 155.035156 C 231.601562 160.511719 226.960938 172.695312 224.023438 181.511719 C 223.558594 182.902344 223.105469 184.296875 222.667969 185.699219 L 221.777344 188.574219 Z M 40.878906 121.898438 L 57.355469 150.449219 L 132.625 154.09375 L 59.460938 154.09375 L 67.355469 167.777344 L 146.710938 171.621094 L 69.574219 171.621094 L 79.359375 188.574219 L 164.011719 188.574219 C 163.855469 186.664062 163.691406 184.8125 163.515625 183.023438 C 163.269531 180.582031 163.007812 178.214844 162.71875 175.9375 C 162.289062 172.507812 161.871094 169.339844 161.355469 165.933594 C 160.992188 163.507812 160.601562 161.101562 160.183594 158.71875 L 159.519531 154.917969 C 159.1875 153.027344 158.835938 151.128906 158.457031 149.214844 C 158.023438 146.980469 157.566406 144.761719 157.082031 142.550781 C 156.382812 139.339844 155.859375 136.753906 155.128906 133.597656 C 154.664062 131.605469 154.175781 129.574219 153.65625 127.5 L 152.683594 123.632812 L 152.703125 123.636719 C 152.558594 123.046875 152.40625 122.46875 152.261719 121.898438 L 148.652344 121.898438 L 153.097656 129.070312 L 143.554688 122.652344 C 143.191406 122.40625 142.832031 122.15625 142.476562 121.898438 L 140.097656 121.898438 C 142.652344 126.589844 144.992188 130.0625 145.011719 130.082031 L 151.664062 140.035156 L 141.613281 133.550781 C 139.078125 131.914062 136.839844 129.984375 134.925781 128.027344 C 137.746094 135.039062 141.171875 140.632812 141.1875 140.65625 L 148.625 152.988281 L 137.488281 143.851562 C 128.15625 136.195312 122.171875 128.828125 118.617188 121.898438 L 108.703125 121.898438 L 116.390625 133.4375 L 103.527344 122.898438 C 103.128906 122.570312 102.730469 122.238281 102.339844 121.898438 Z M 190.289062 122.613281 C 190.773438 122.351562 191.273438 122.117188 191.765625 121.898438 L 179.03125 121.898438 L 170.90625 136.78125 C 171.851562 140.15625 172.792969 143.535156 173.65625 146.933594 L 173.753906 147.324219 C 176.929688 138.28125 180.566406 127.742188 190.289062 122.613281 Z M 261.484375 170.980469 C 262.289062 172.960938 262.9375 175.023438 263.386719 177.152344 C 263.464844 177.519531 263.535156 177.886719 263.601562 178.257812 C 266.820312 173.441406 268.34375 167.019531 267.105469 160.945312 C 266.058594 165.144531 264.375 167.980469 261.484375 170.980469 Z M 169.179688 121.898438 C 168.546875 122.933594 167.933594 123.945312 167.363281 124.925781 C 167.992188 126.914062 168.59375 128.886719 169.179688 130.84375 C 169.570312 132.144531 169.957031 133.464844 170.347656 134.816406 L 173.957031 121.898438 Z M 166.40625 121.898438 C 166.519531 122.265625 166.640625 122.628906 166.753906 122.996094 C 166.828125 122.625 166.902344 122.261719 166.980469 121.898438 Z M 207.839844 188.574219 C 206.707031 183.835938 206.296875 179.253906 206.136719 175.101562 C 204.519531 179.371094 203.339844 183.84375 202.34375 188.574219 Z M 198.496094 188.574219 C 197.820312 185.984375 197.429688 183.394531 197.375 179.585938 C 196.230469 182.664062 195.316406 185.601562 194.558594 188.574219 Z M 188.765625 188.574219 C 188.527344 186.945312 188.398438 185.3125 188.386719 183.679688 C 187.617188 185.328125 186.941406 186.949219 186.332031 188.574219 Z M 179.800781 174.851562 C 182.609375 161.265625 190.636719 153.863281 199.433594 149.898438 L 201.738281 147.035156 C 202.96875 145.507812 204.144531 144.238281 205.246094 143.175781 C 197.632812 145.277344 194.214844 148.972656 189.175781 153.515625 C 190.910156 147.730469 192.785156 144.414062 196.421875 139.691406 C 190.664062 142.792969 186.621094 147.308594 181.609375 153.789062 C 182.832031 146.683594 184.046875 141.171875 189.3125 135.09375 C 182.769531 139.128906 177.722656 146.332031 174.90625 151.984375 L 176.050781 156.851562 C 176.625 159.300781 177.179688 161.796875 177.71875 164.335938 C 178.203125 166.621094 178.675781 168.957031 179.132812 171.347656 L 179.140625 171.34375 Z M 209.671875 185.90625 C 213.847656 175.441406 217.957031 166.914062 223.191406 157.027344 C 214.441406 164.375 210.554688 177.621094 209.671875 185.90625 Z M 209.671875 185.90625 " fill-opacity="1" fill-rule="evenodd"/><path fill="#5f459c" d="M 186.78125 255.160156 C 186.734375 256.660156 186.679688 258.140625 186.636719 259.3125 C 187.613281 258.140625 188.769531 256.90625 189.824219 256.117188 C 189.511719 259.078125 189.328125 263.078125 189.46875 265.253906 C 189.980469 264.519531 190.636719 263.628906 191.140625 262.972656 C 191.230469 260.214844 191.382812 257.613281 191.582031 255.160156 Z M 242.484375 278.730469 L 249.621094 266.359375 C 244.007812 267.230469 238.949219 268.761719 234.976562 271.878906 C 236.976562 272.597656 238.339844 273.242188 241.660156 274.703125 C 237.03125 276.445312 233.566406 277.621094 229.519531 280.710938 C 234.25 278.96875 238.015625 278.730469 242.484375 278.730469 Z M 250.070312 265.589844 L 256.082031 255.160156 L 214.839844 255.160156 L 215.027344 256.449219 C 215.507812 259.601562 216.070312 262.738281 216.800781 265.808594 C 217.113281 267.113281 217.453125 268.40625 217.832031 269.671875 L 222.046875 266.605469 C 230.214844 260.660156 241.015625 263.148438 250.070312 265.589844 Z M 117.78125 255.160156 L 126.210938 269.761719 C 133.003906 271.375 137.445312 273.03125 143.777344 278.3125 C 141.160156 274.664062 137.023438 270.820312 131.0625 266.730469 L 138.007812 267.292969 C 134.109375 264.019531 129.265625 261.066406 122.761719 258.5 C 132.378906 258.679688 140.207031 259.003906 148.398438 264.25 C 151.546875 266.269531 153.933594 268.625 155.699219 270.828125 C 156.1875 269.539062 156.652344 268.234375 157.097656 266.914062 C 158.027344 264.164062 158.855469 261.324219 159.59375 258.398438 L 160.410156 255.160156 Z M 117.78125 255.160156 " fill-opacity="1" fill-rule="evenodd"/><path fill="#98459a" d="M 183.421875 197.839844 C 183.632812 199.488281 183.839844 201.132812 184.035156 202.769531 C 184.9375 210.457031 185.683594 218.621094 186.160156 226.339844 C 186.378906 229.949219 186.550781 233.601562 186.652344 237.285156 C 186.789062 241.8125 186.902344 246.367188 186.875 250.910156 C 186.871094 251.203125 186.867188 251.511719 186.863281 251.832031 L 191.898438 251.832031 C 193.09375 240.433594 195.273438 232.566406 196.496094 227.125 C 198.617188 217.671875 198.84375 216.914062 201.699219 207.882812 C 203.367188 202.609375 205.3125 197.089844 207.296875 191.90625 L 201.675781 191.90625 C 201.410156 193.324219 201.152344 194.761719 200.894531 196.222656 C 200.371094 194.597656 199.898438 193.199219 199.484375 191.90625 L 193.78125 191.90625 C 193.164062 194.792969 192.671875 197.773438 192.25 201.003906 C 191.074219 197.988281 190.070312 194.953125 189.382812 191.90625 L 185.164062 191.90625 C 184.535156 193.839844 183.96875 195.800781 183.421875 197.839844 Z M 258.003906 251.832031 L 267.664062 235.09375 L 241.527344 233.152344 L 268.785156 233.152344 L 275.292969 221.875 L 256.433594 220.472656 L 276.101562 220.472656 L 292.585938 191.90625 L 273.160156 191.90625 C 270.730469 193.664062 268.195312 195.242188 265.691406 196.640625 C 266.691406 195.097656 267.683594 193.519531 268.636719 191.90625 L 263.214844 191.90625 C 262.523438 194.84375 261.40625 197.828125 259.816406 200.832031 C 252.511719 214.601562 237.421875 225.433594 222.980469 230.402344 C 229.378906 223.03125 238.601562 213.394531 243.332031 203.695312 C 238.171875 208.246094 231.792969 211.691406 225.917969 215.277344 C 231.394531 207.300781 236.207031 200.515625 240.207031 191.90625 L 237.589844 191.90625 C 234.054688 194.671875 230.210938 196.835938 226.253906 199.34375 C 227.871094 196.78125 229.449219 194.34375 230.953125 191.90625 L 220.765625 191.90625 C 220.421875 193.078125 220.09375 194.226562 219.785156 195.351562 C 219.21875 197.417969 218.695312 199.457031 218.214844 201.464844 L 217.664062 203.800781 C 217.125 206.109375 216.644531 208.347656 216.234375 210.511719 C 215.816406 212.707031 215.453125 214.902344 215.136719 217.097656 L 214.964844 218.28125 L 214.949219 218.289062 L 214.792969 219.441406 C 214.457031 221.890625 214.1875 224.367188 213.984375 226.859375 C 213.78125 229.386719 213.652344 231.800781 213.601562 234.101562 L 213.558594 236.398438 C 213.507812 239.449219 213.578125 242.484375 213.777344 245.511719 C 213.910156 247.628906 214.109375 249.738281 214.371094 251.832031 Z M 81.28125 191.90625 L 105.117188 233.214844 L 152.65625 236.175781 L 106.828125 236.175781 L 115.859375 251.832031 L 161.171875 251.832031 C 161.574219 249.960938 161.9375 248.070312 162.265625 246.152344 C 162.863281 242.660156 163.335938 239.152344 163.695312 235.644531 C 164.027344 232.417969 164.511719 227.402344 164.699219 223.652344 C 164.863281 220.46875 164.945312 217.300781 164.964844 214.164062 L 164.976562 211.488281 C 164.992188 208.460938 164.941406 205.394531 164.835938 202.300781 C 164.730469 199.273438 164.558594 196.144531 164.324219 192.925781 L 164.25 191.90625 Z M 81.28125 191.90625 " fill-opacity="1" fill-rule="evenodd"/><path fill="#467ec1" d="M 215.121094 326.148438 L 230.292969 299.855469 L 143.570312 299.855469 L 151.097656 312.894531 L 194.980469 316.683594 L 153.28125 316.683594 L 158.746094 326.148438 Z M 215.121094 326.148438 " fill-opacity="1" fill-rule="evenodd"/><path fill="#3c62ad" d="M 186.933594 374.996094 L 200.625 351.273438 L 173.246094 351.273438 Z M 202.542969 347.941406 L 208.664062 337.335938 L 183.796875 335.328125 L 209.820312 335.328125 L 213.199219 329.480469 L 160.667969 329.480469 L 171.324219 347.941406 Z M 202.542969 347.941406 " fill-opacity="1" fill-rule="evenodd"/><path fill="#030404" d="M 140.90625 78.027344 C 140.417969 76.804688 139.9375 75.578125 139.441406 74.421875 C 138.078125 71.023438 137.871094 69.375 138.863281 68.796875 C 139.851562 68.175781 141.796875 70.347656 143.105469 72.773438 C 143.789062 74.039062 144.46875 75.316406 145.136719 76.585938 C 144.667969 77.230469 143.324219 78.585938 140.90625 78.027344 Z M 230.933594 144.84375 C 238.921875 119.753906 224.757812 87.125 190.207031 105.761719 C 190.207031 105.761719 207.839844 101.054688 216.597656 110.90625 C 216.597656 110.90625 208.609375 106.863281 196.125 112.664062 C 196.125 112.664062 213.046875 110.207031 221.675781 120.015625 C 221.675781 120.015625 212.8125 114.257812 201.285156 117.691406 C 207.496094 117.589844 225.136719 122.453125 229.355469 141.710938 C 229.355469 141.710938 233.304688 117.21875 216.371094 105.5 C 216.371094 105.5 235.34375 112.664062 230.933594 144.84375 Z M 233.691406 149.214844 C 254.53125 153.296875 285.761719 192.894531 231.039062 224.449219 C 231.039062 224.449219 246.65625 209.945312 249.4375 193.09375 C 249.4375 193.09375 244.765625 200.867188 234.53125 207.117188 C 234.53125 207.117188 245.488281 191.191406 248.179688 175.710938 C 248.179688 175.710938 241.488281 186.753906 234.226562 191.355469 C 234.226562 191.355469 243.898438 176.117188 243.617188 163.566406 C 243.617188 163.566406 241.089844 171.683594 234.421875 177.316406 C 234.421875 177.316406 239.566406 164.339844 235.453125 152.292969 C 263.859375 170.085938 253.792969 197.546875 253.792969 197.546875 C 266.511719 163.621094 233.691406 149.214844 233.691406 149.214844 Z M 233.328125 148.175781 C 261.007812 120.09375 310.175781 160.101562 272.554688 189.203125 C 272.554688 189.203125 282.203125 174.03125 276.226562 161.097656 C 276.226562 161.097656 276.742188 169.914062 266.539062 178.039062 C 266.539062 178.039062 275.039062 162.800781 265.160156 151.703125 C 265.160156 151.703125 266.925781 161.328125 260.457031 168.425781 C 260.457031 168.425781 262.917969 155.113281 252.640625 147.671875 C 252.640625 147.671875 256.324219 152.269531 253.449219 159.132812 C 253.449219 159.132812 250.375 148.066406 237.6875 148.175781 C 272.933594 135.339844 281.011719 160.59375 281.492188 164.777344 C 280.140625 143.007812 254.097656 136.058594 233.328125 148.175781 Z M 228.855469 148.40625 C 228.855469 148.40625 175.5 140.628906 181.742188 194.523438 C 181.742188 194.523438 185.449219 180.476562 192.65625 172.097656 C 192.65625 172.097656 189.40625 181.261719 191.648438 190.273438 C 191.648438 190.273438 195.050781 174.292969 201.316406 167.019531 C 201.316406 167.019531 198.566406 176.050781 200.507812 184.625 C 200.507812 184.625 204.933594 167.179688 210.914062 161.785156 C 210.914062 161.785156 207.820312 170.21875 208.785156 176.890625 C 208.785156 176.890625 212.71875 159.304688 226.695312 151.167969 C 226.695312 151.167969 203.523438 150.46875 189.359375 170.175781 C 189.359375 170.175781 195.011719 150.90625 228.855469 148.40625 Z M 228.96875 146.644531 C 226.550781 128.382812 191.234375 104.984375 177.90625 142.976562 C 177.90625 142.976562 188.457031 126.863281 200.832031 130.90625 C 200.832031 130.90625 192.207031 131.179688 186.375 144.59375 C 186.375 144.59375 196.214844 132.871094 208.398438 135.011719 C 208.398438 135.011719 201.792969 135.265625 194.582031 146.066406 C 194.582031 146.066406 203.191406 138.234375 214.21875 140.375 C 214.21875 140.375 209.964844 140.769531 203.667969 148.589844 C 203.667969 148.589844 213.527344 140.046875 226.675781 146.742188 C 226.675781 146.742188 218.9375 127.628906 197.050781 125.761719 C 197.050781 125.761719 216.328125 122.988281 228.96875 146.644531 Z M 233.109375 144.375 C 232.703125 133.222656 252.847656 83.980469 286.054688 119.996094 C 286.054688 119.996094 270.628906 111.035156 257.859375 118.015625 C 257.859375 118.015625 267.289062 115.851562 278.421875 124.351562 C 278.421875 124.351562 261.1875 117.972656 250.636719 126.449219 C 250.636719 126.449219 259.15625 122.757812 269.667969 129.5625 C 269.667969 129.5625 252.921875 127.738281 245.71875 133.703125 C 245.71875 133.703125 253.296875 131.792969 259.976562 135.753906 C 259.976562 135.753906 244.257812 134.992188 235.359375 144.253906 C 235.359375 144.253906 242.398438 119.492188 260.636719 112.542969 C 260.636719 112.542969 242.425781 113.265625 233.109375 144.375 Z M 230.476562 150.230469 C 230.09375 150.292969 227.984375 153.363281 225.105469 158.761719 C 225.753906 159.503906 226.855469 160.453125 228.738281 161.457031 C 231.410156 154.511719 233.238281 149.726562 230.476562 150.230469 Z M 209.753906 260.429688 C 209.753906 260.429688 212.472656 273.5625 210.933594 277.210938 C 210.464844 278.277344 209.414062 278.976562 208.15625 279.441406 L 201.417969 279.882812 C 203.273438 278.484375 209.320312 272.976562 209.753906 260.429688 Z M 208.589844 238.664062 C 208.589844 238.664062 209.546875 250.1875 207.546875 253.070312 C 205.535156 255.941406 200.039062 255.867188 200.039062 255.867188 C 200.039062 255.867188 206.824219 250.949219 208.589844 238.664062 Z M 209.882812 222.058594 C 209.882812 222.058594 209.769531 230.710938 208.339844 233.023438 C 206.90625 235.355469 201.996094 234.6875 201.996094 234.6875 C 201.996094 234.6875 206.914062 232.949219 209.882812 222.058594 Z M 213.40625 204.308594 C 213.40625 204.308594 211.621094 213.300781 210.59375 214.773438 C 209.574219 216.261719 205.558594 215.625 205.558594 215.625 C 205.558594 215.625 210.304688 212.992188 213.40625 204.308594 Z M 217.320312 189.441406 C 217.320312 189.441406 215.578125 198.082031 214.226562 199.140625 C 212.867188 200.214844 210.417969 198.890625 210.417969 198.890625 C 210.417969 198.890625 213.820312 197.960938 217.320312 189.441406 Z M 221.796875 176.445312 C 221.796875 176.445312 220.167969 183.324219 219.015625 184.441406 C 217.867188 185.574219 215.980469 184.058594 215.980469 184.058594 C 215.980469 184.058594 219.308594 183.105469 221.796875 176.445312 Z M 226.273438 164.417969 C 226.273438 164.417969 224.816406 169.96875 223.839844 171.082031 C 222.867188 172.21875 221.742188 170.785156 221.742188 170.785156 C 221.742188 170.785156 223.992188 169.453125 226.273438 164.417969 Z M 230.910156 152.214844 C 230.910156 152.214844 229.367188 158.398438 228.738281 159.207031 C 228.101562 160.003906 226.785156 158.695312 226.785156 158.695312 C 226.785156 158.695312 228.210938 159.164062 230.910156 152.214844 Z M 223.941406 160.910156 C 222.496094 163.644531 220.882812 166.84375 219.1875 170.457031 C 219.785156 171.125 221.402344 173.34375 224.371094 173.015625 C 225.464844 169.957031 226.628906 166.84375 227.859375 163.71875 C 226.074219 162.746094 224.820312 161.785156 223.941406 160.910156 Z M 218.109375 172.730469 C 216.558594 176.074219 214.9375 179.699219 213.320312 183.601562 C 214.097656 184.351562 216.253906 186.765625 219.921875 186.1875 C 221.019531 182.605469 222.234375 178.96875 223.558594 175.285156 C 220.773438 175.570312 219.117188 173.574219 218.109375 172.730469 Z M 212.34375 185.9375 C 210.667969 189.96875 209 194.261719 207.417969 198.738281 C 208.277344 199.425781 210.890625 202.386719 215.808594 200.890625 C 216.777344 196.835938 217.90625 192.710938 219.203125 188.515625 C 215.746094 189.050781 213.589844 186.863281 212.34375 185.9375 Z M 206.589844 201.109375 C 204.855469 206.011719 203.214844 211.148438 201.753906 216.464844 C 202.382812 216.761719 203.773438 217.613281 205.6875 218.007812 C 207.59375 218.390625 210.015625 218.324219 212.679688 216.75 C 213.3125 212.328125 214.171875 207.828125 215.25 203.238281 C 210.714844 204.550781 208.050781 201.972656 206.589844 201.109375 Z M 201.105469 218.835938 C 199.53125 224.625 198.164062 230.621094 197.113281 236.75 C 197.902344 236.925781 200.09375 237.386719 202.738281 237.253906 C 205.378906 237.109375 208.484375 236.347656 211.125 234.054688 C 211.234375 229.179688 211.632812 224.210938 212.339844 219.109375 C 209.695312 220.398438 207.347656 220.476562 205.4375 220.179688 C 203.523438 219.886719 202.039062 219.152344 201.105469 218.835938 Z M 196.707031 239.085938 C 195.679688 245.03125 193.964844 251.378906 194.585938 257.175781 C 194.710938 258.367188 198.296875 258.730469 202.257812 258.3125 C 206.222656 257.898438 210.582031 256.671875 212.257812 254.6875 C 211.371094 248.757812 210.980469 242.671875 211.082031 236.359375 C 208.179688 238.214844 205.144531 238.988281 202.566406 239.230469 C 199.980469 239.46875 197.84375 239.242188 196.707031 239.085938 Z M 194.398438 260.671875 C 194.085938 265.839844 194.019531 271.125 194.550781 276.371094 C 190.265625 272.417969 191.152344 266.453125 191.152344 266.453125 C 188.3125 271.0625 188.847656 276.519531 188.847656 276.519531 C 185.945312 270.867188 187.859375 260.847656 187.859375 260.847656 C 183.953125 266.515625 183.355469 274.597656 183.355469 274.597656 L 183.171875 275.363281 C 183.546875 271.710938 183.8125 267.941406 183.984375 264.089844 C 181.972656 264.386719 178.898438 264.558594 175.121094 263.960938 C 173.230469 263.664062 171.164062 263.152344 168.964844 262.355469 C 166.761719 261.558594 164.421875 260.464844 162.003906 259.003906 C 160.507812 264.917969 158.605469 270.597656 156.242188 276.0625 C 153.6875 271.449219 147.207031 263.382812 134.007812 261.820312 C 134.007812 261.820312 143.6875 266.765625 145.726562 272.785156 C 145.726562 272.785156 142.691406 270.949219 138.484375 269.957031 C 138.484375 269.957031 149.390625 276.5 149.710938 287.960938 C 149.710938 287.960938 140.476562 275.433594 127.871094 272.648438 L 141.648438 296.523438 L 232.214844 296.523438 L 236.167969 289.675781 C 236.058594 289.664062 235.949219 289.652344 235.839844 289.640625 C 235.839844 289.640625 236.023438 289.527344 236.355469 289.347656 L 241.0625 281.1875 C 234.554688 281.128906 226.304688 283.09375 218.460938 290.777344 C 218.460938 290.777344 222.042969 280.511719 235.003906 274.566406 C 235.003906 274.566406 232.011719 273.160156 229.632812 273.605469 C 229.632812 273.605469 234.761719 267.171875 241.890625 265.914062 C 241.890625 265.914062 229.757812 264.058594 223.5 268.613281 C 223.5 268.613281 228.359375 266.921875 231.453125 267.804688 C 231.453125 267.804688 225.804688 268.109375 217.550781 276.539062 C 217.480469 276.214844 217.375 275.875 217.238281 275.519531 C 214.867188 269.640625 213.550781 263.257812 212.574219 256.816406 C 208.726562 259.121094 204.691406 260.214844 201.375 260.664062 C 198.050781 261.113281 195.429688 260.933594 194.398438 260.671875 Z M 144.636719 88.085938 C 143.765625 85.554688 142.855469 83.074219 141.941406 80.691406 C 143.949219 80.726562 145.417969 79.894531 146.386719 79.03125 C 147.640625 81.542969 148.878906 84.101562 150.054688 86.65625 C 149.480469 87.34375 147.800781 88.796875 144.636719 88.085938 Z M 148.339844 99.230469 C 147.433594 96.332031 146.515625 93.527344 145.582031 90.796875 C 148.191406 90.972656 150.027344 90.0625 151.195312 89.167969 C 152.472656 91.953125 153.695312 94.847656 154.898438 97.742188 C 154.433594 98.34375 152.5 100.300781 148.339844 99.230469 Z M 151.789062 110.730469 C 150.941406 107.75 150.082031 104.789062 149.175781 101.960938 C 152.441406 102.386719 154.632812 101.367188 155.972656 100.367188 C 157.097656 103.171875 158.195312 106.035156 159.246094 108.90625 C 158.613281 109.679688 156.425781 111.824219 151.789062 110.730469 Z M 155.371094 124.058594 C 154.46875 120.453125 153.515625 116.890625 152.539062 113.441406 C 156.273438 113.953125 158.765625 112.753906 160.253906 111.617188 C 161.554688 115.285156 162.835938 118.957031 164.035156 122.679688 C 163.21875 123.566406 160.570312 125.773438 155.371094 124.058594 Z M 158.941406 139.335938 C 158.039062 135.089844 157.082031 130.949219 156.058594 126.898438 C 160.335938 127.816406 163.226562 126.65625 164.921875 125.433594 C 166.207031 129.507812 167.429688 133.582031 168.589844 137.710938 C 167.628906 138.496094 164.324219 140.800781 158.941406 139.335938 Z M 162.148438 155.546875 C 161.359375 150.972656 160.480469 146.472656 159.511719 142.023438 C 164.132812 142.898438 167.472656 141.566406 169.347656 140.429688 C 170.671875 145.148438 171.878906 149.921875 173 154.707031 C 172.355469 155.132812 171.09375 155.84375 169.261719 156.183594 C 167.433594 156.53125 165.042969 156.53125 162.148438 155.546875 Z M 164.839844 172.90625 C 164.207031 167.988281 163.472656 163.117188 162.628906 158.289062 C 165.179688 158.957031 167.40625 159 169.25 158.761719 C 171.097656 158.53125 172.578125 157.953125 173.632812 157.417969 C 174.785156 162.34375 175.839844 167.300781 176.78125 172.261719 C 176.257812 172.601562 174.921875 173.351562 172.90625 173.703125 C 170.875 174.085938 168.15625 174.085938 164.839844 172.90625 Z M 166.601562 189.945312 C 166.25 185.183594 165.769531 180.386719 165.175781 175.636719 C 168.035156 176.464844 170.523438 176.554688 172.550781 176.335938 C 174.59375 176.105469 176.195312 175.546875 177.308594 175.003906 C 178.300781 180.289062 179.171875 185.542969 179.925781 190.796875 C 179.207031 191.105469 177.597656 191.746094 175.300781 191.855469 C 173.011719 191.964844 170.03125 191.59375 166.601562 189.945312 Z M 167.453125 211.496094 C 167.480469 205.292969 167.253906 199.023438 166.796875 192.753906 C 169.886719 193.976562 172.648438 194.390625 174.949219 194.371094 C 177.238281 194.347656 179.078125 193.890625 180.3125 193.460938 C 181.246094 199.941406 182 206.382812 182.589844 212.765625 C 181.582031 213.167969 179.679688 213.746094 177.09375 213.769531 C 174.507812 213.8125 171.21875 213.300781 167.453125 211.496094 Z M 166.457031 233.210938 C 167.101562 226.988281 167.40625 220.605469 167.441406 214.171875 C 170.90625 215.636719 174.035156 216.214844 176.636719 216.261719 C 179.253906 216.28125 181.367188 215.886719 182.828125 215.460938 C 183.519531 222.867188 183.972656 230.1875 184.183594 237.351562 C 182.5625 237.636719 180.097656 237.800781 177.046875 237.328125 C 175.523438 237.089844 173.851562 236.683594 172.074219 236.019531 C 170.292969 235.355469 168.402344 234.433594 166.457031 233.210938 Z M 162.609375 256.621094 C 164.28125 249.925781 165.4375 242.953125 166.160156 235.898438 C 168.074219 236.992188 169.925781 237.820312 171.679688 238.421875 C 173.4375 239.023438 175.109375 239.429688 176.648438 239.6875 C 179.730469 240.203125 182.339844 240.136719 184.246094 239.910156 C 184.492188 247.300781 184.453125 254.523438 184.113281 261.425781 C 182.6875 261.753906 179.871094 262.136719 176.136719 261.644531 C 174.269531 261.402344 172.160156 260.957031 169.886719 260.160156 C 167.613281 259.371094 165.171875 258.21875 162.609375 256.621094 Z M 145.917969 80.8125 C 145.917969 80.8125 147.933594 84.4375 148.230469 85.859375 C 148.527344 87.34375 146.238281 87.34375 146.238281 87.34375 C 146.238281 87.34375 147.664062 85.75 145.917969 80.8125 Z M 150.671875 90.820312 C 150.671875 90.820312 152.828125 95.582031 152.929688 97 C 153.023438 98.375 150.433594 98.441406 150.035156 98.3125 C 150.035156 98.3125 152.566406 96.246094 150.671875 90.820312 Z M 155.433594 102.167969 C 155.433594 102.167969 157.617188 107.191406 157.335938 108.480469 C 157.082031 109.746094 154.234375 110.019531 153.640625 109.859375 C 153.640625 109.859375 156.726562 107.640625 155.433594 102.167969 Z M 159.382812 113.667969 C 159.382812 113.667969 161.960938 119.917969 161.769531 121.609375 C 161.609375 123.324219 157.988281 123.3125 157.503906 123.050781 C 157.503906 123.050781 161.097656 120.824219 159.382812 113.667969 Z M 163.675781 127.96875 C 163.675781 127.96875 166.683594 135.710938 165.792969 137.195312 C 164.898438 138.671875 161.625 138.332031 161.097656 138.050781 C 161.097656 138.050781 165.265625 135.820312 163.675781 127.96875 Z M 167.824219 143.3125 C 167.824219 143.3125 170.453125 150.304688 170.011719 152.6875 C 169.5625 155.089844 165.433594 154.597656 164.441406 153.933594 C 164.441406 153.933594 168.945312 152 167.824219 143.3125 Z M 172.085938 160.289062 C 172.085938 160.289062 174.21875 167.585938 173.417969 169.8125 C 172.632812 172.085938 168.492188 171.636719 167.554688 171.167969 C 167.554688 171.167969 172.171875 168.949219 172.085938 160.289062 Z M 175.027344 178.59375 C 175.027344 178.59375 176.851562 185.96875 176.285156 188.210938 C 175.742188 190.4375 170.597656 189.105469 169.816406 188.371094 C 169.816406 188.371094 174.195312 186.164062 175.027344 178.59375 Z M 177.480469 197.046875 C 177.480469 197.046875 179.746094 207.78125 178.578125 210.1875 C 177.421875 212.589844 171.914062 210.4375 171.203125 209.835938 C 171.203125 209.835938 176.417969 209.429688 177.480469 197.046875 Z M 179.9375 219.601562 C 179.9375 219.601562 181.410156 231.816406 179.484375 233.898438 C 177.570312 236.019531 170.609375 232.632812 170.609375 232.632812 C 170.609375 232.632812 179.035156 231.640625 179.9375 219.601562 Z M 180.023438 243.359375 C 180.023438 243.359375 181.144531 254.707031 179.148438 257.199219 C 177.179688 259.644531 170.152344 256.769531 169.121094 256.019531 C 169.121094 256.019531 171.351562 255.855469 173.816406 254.175781 C 176.28125 252.480469 178.988281 249.324219 180.023438 243.359375 Z M 178.898438 267.179688 C 178.898438 267.179688 178.578125 278.75 175.503906 280.238281 C 173.96875 280.976562 170.65625 280.816406 167.726562 280.484375 C 164.800781 280.148438 162.253906 279.550781 162.253906 279.550781 C 162.253906 279.550781 165.421875 279.4375 169.054688 277.863281 C 172.703125 276.261719 176.863281 273.167969 178.898438 267.179688 Z M 140.359375 70.402344 C 141.5 71.550781 143.347656 74.957031 143.613281 75.960938 C 143.871094 77 142.425781 77.097656 142.425781 77.097656 C 142.425781 77.097656 142.804688 75.210938 140.359375 70.402344 Z M 143.695312 69.496094 C 154.328125 68.492188 195.710938 77.644531 179.660156 114.980469 L 179.660156 114.992188 C 178.867188 116.824219 177.941406 118.726562 176.863281 120.703125 C 176.863281 120.703125 181.863281 103.304688 174.257812 92.566406 C 174.257812 92.566406 177.972656 101.804688 171.230469 113.363281 C 171.230469 113.363281 174.851562 95.875 164.597656 85.871094 C 164.597656 85.871094 169.695312 94.128906 164.5625 104.972656 C 164.5625 104.972656 163.675781 88.21875 156.496094 81.414062 C 156.496094 81.414062 159.652344 88.832031 156.753906 95.699219 C 156.753906 95.699219 156.363281 79.4375 143.78125 71.222656 C 143.78125 71.222656 171.230469 75.578125 178.96875 94.542969 C 178.96875 94.542969 174.722656 74.835938 143.695312 69.496094 Z M 136.710938 60.332031 C 114.613281 34.671875 118.527344 -0.0078125 154.140625 6.949219 C 154.140625 6.949219 140.566406 8.578125 135.808594 20.570312 C 135.808594 20.570312 139.46875 12.980469 155.226562 13.59375 C 155.226562 13.59375 139.222656 17.710938 134.957031 31.625 C 134.957031 31.625 139.21875 22.789062 152.453125 22.167969 C 146.144531 24.273438 131.757812 36.050781 136.53125 57.097656 C 136.53125 57.097656 121.605469 33.265625 133.503906 15 C 133.503906 15 117.179688 29.253906 136.710938 60.332031 Z M 134.941406 64.316406 C 131.257812 52.761719 103.722656 13.546875 73.003906 46.808594 L 72.996094 46.820312 C 71.488281 48.457031 69.96875 50.269531 68.449219 52.257812 C 68.449219 52.257812 83.859375 39.347656 98.089844 42.558594 C 98.089844 42.558594 87.089844 42.757812 78.367188 54.902344 C 78.367188 54.902344 94.472656 43.402344 109.132812 49.703125 C 109.132812 49.703125 98.523438 48.007812 89.808594 58.167969 C 89.808594 58.167969 107.160156 51.703125 117.230469 56.203125 C 117.230469 56.203125 108.324219 56.179688 102.648438 62.234375 C 102.648438 62.234375 119.285156 55.46875 133.152344 64.984375 C 133.152344 64.984375 116.617188 38.222656 94 38.507812 C 94 38.507812 115.832031 34.246094 134.941406 64.316406 Z M 138.847656 63.203125 C 135.234375 35.316406 156.460938 6.273438 189.355469 35.394531 C 189.355469 35.394531 171.648438 25.410156 160.5 32.871094 C 160.5 32.871094 169.714844 31.101562 181.777344 40.679688 C 181.777344 40.679688 164.386719 33.199219 153.386719 40.648438 C 153.386719 40.648438 163.859375 37.394531 175.367188 44.273438 C 168.828125 42.351562 149.269531 42.113281 141.113281 60.472656 C 141.113281 60.472656 141.648438 34.390625 161.78125 27.429688 C 161.78125 27.429688 140.375 29.144531 138.847656 63.203125 Z M 135.65625 68.335938 C 97.820312 46.863281 65.53125 88.554688 105.101562 120.976562 C 105.101562 120.976562 93.023438 103.117188 95.375 88.078125 C 95.375 88.078125 96.707031 98.988281 108.050781 107.824219 C 108.050781 107.824219 97.386719 90.535156 104.503906 76.671875 C 104.503906 76.671875 103.597656 87.433594 111.5625 96.324219 C 111.5625 96.324219 107.371094 81.328125 116.078125 71.308594 C 116.078125 71.308594 113.515625 76.8125 116.164062 84.972656 C 116.164062 84.972656 119.167969 71.648438 134.347656 69.179688 C 96.011719 59.195312 89.636719 85.988281 90.4375 90.566406 C 89.164062 69.308594 112.410156 59.480469 135.65625 68.335938 Z M 136.5625 70.949219 C 136.5625 70.949219 90.800781 102.339844 139.0625 141.9375 C 139.0625 141.9375 130.433594 127.847656 128.972656 115.90625 C 128.972656 115.90625 133.992188 125.683594 142.953125 131.460938 C 142.953125 131.460938 132.527344 116.007812 131.273438 105.628906 C 131.273438 105.628906 136.550781 114.957031 144.933594 120.59375 C 144.933594 120.59375 134.074219 103.207031 134.136719 94.574219 C 134.136719 94.574219 138.675781 103.644531 144.792969 108.402344 C 144.792969 108.402344 133.457031 91.265625 137.210938 74.738281 C 137.210938 74.738281 119.503906 90.566406 124.976562 116.671875 C 124.976562 116.671875 113.558594 96.933594 136.5625 70.949219 Z M 141.753906 65.070312 C 152.648438 42.789062 193.183594 35.492188 209.492188 75.011719 C 209.492188 75.011719 192.792969 57.734375 178.710938 56.519531 C 178.710938 56.519531 190.707031 60.570312 195.128906 75.667969 C 195.128906 75.667969 181.890625 60.398438 168.5625 59.054688 C 168.5625 59.054688 178.390625 61.578125 183.777344 74.816406 C 183.777344 74.816406 174.371094 63.609375 160.203125 63.445312 C 160.203125 63.445312 167.460938 64.582031 173.101562 74.828125 C 173.101562 74.828125 162.160156 63.542969 144.496094 65.78125 C 144.496094 65.78125 160.429688 47.015625 185.40625 54.628906 C 185.40625 54.628906 161.695312 43.628906 141.753906 65.070312 Z M 141.753906 65.070312 " fill-opacity="1" fill-rule="evenodd"/></svg>